<svg width="207" height="44" viewBox="0 0 207 44" fill="none" xmlns="http://www.w3.org/2000/svg">
<path d="M134.203 17.8732C133.903 17.7049 133.558 17.5553 133.174 17.4057C132.164 17.0411 130.986 16.8541 129.678 16.8541L125.947 16.8822C122.965 16.9196 120.375 18.0135 118.262 20.1171C116.14 22.2207 115.074 24.8011 115.074 27.7743V32.8791C115.074 35.8522 116.149 38.4233 118.262 40.5363C120.375 42.6399 122.965 43.7244 125.947 43.7712L129.621 43.8273C131.557 43.8273 133.09 43.4626 134.203 42.7521C134.221 43.3224 134.689 43.7712 135.25 43.7712H140.888C141.467 43.7712 141.944 43.3037 141.944 42.7147V17.9013C141.944 17.3403 141.486 16.8822 140.925 16.8822H135.231C134.68 16.8822 134.221 17.3216 134.203 17.8732ZM129.799 36.0205H127.247C126.022 36.0205 125.003 35.5904 124.124 34.7116C123.254 33.8327 122.824 32.8043 122.824 31.5701V29.0177C122.824 27.793 123.245 26.7645 124.115 25.895C124.984 25.0255 126.003 24.6048 127.237 24.6048H129.79C131.015 24.6048 132.043 25.0255 132.912 25.895C133.782 26.7645 134.203 27.7836 134.203 29.0177V31.5701C134.203 32.8043 133.782 33.8234 132.903 34.7116C132.052 35.5904 131.033 36.0205 129.799 36.0205Z" fill="#E40F18"/>
<path d="M32.621 5.13035V27.2698C32.621 27.2792 32.621 27.2885 32.621 27.2979C32.621 27.3727 32.621 27.4475 32.621 27.5129C32.621 28.7096 32.4901 29.8783 32.2471 31.0096C32.219 31.1592 32.1816 31.2994 32.1442 31.449C32.1068 31.5986 32.0694 31.7388 32.032 31.8884C32.004 31.9913 31.9759 32.0941 31.9385 32.197C31.9198 32.2531 31.9011 32.3092 31.8824 32.3653C31.8544 32.4587 31.8263 32.5616 31.7889 32.6551C31.7796 32.7018 31.7609 32.7392 31.7422 32.786C31.7048 32.9075 31.658 33.0384 31.6113 33.16C31.5552 33.3282 31.4898 33.4872 31.4243 33.6461C31.3776 33.7583 31.3308 33.8705 31.2841 33.9827C31.228 34.1042 31.1719 34.2351 31.1158 34.3567C31.1064 34.366 31.1064 34.3754 31.1064 34.3847C31.0971 34.3941 31.0971 34.4034 31.0877 34.4128C30.6016 35.4599 30.0032 36.4416 29.3113 37.3485C29.1804 37.5261 29.0496 37.6944 28.9093 37.8627C28.6288 38.2087 28.3296 38.5452 28.0118 38.8631C27.8622 39.0127 27.7126 39.1623 27.563 39.3119C27.5536 39.3212 27.5443 39.3306 27.5349 39.3399C27.4882 39.3867 27.4321 39.4334 27.376 39.4802C27.3667 39.4895 27.3667 39.4895 27.3667 39.4895C27.2919 39.5643 27.2077 39.6298 27.1329 39.6952C27.1236 39.7046 27.1142 39.7139 27.1049 39.7233C27.0301 39.7887 26.9646 39.8542 26.8898 39.9102C26.5906 40.172 26.2821 40.4151 25.9642 40.6489C25.8146 40.761 25.6744 40.8639 25.5248 40.9667C25.45 41.0135 25.3846 41.0602 25.3098 41.107C25.1321 41.2285 24.9451 41.3407 24.7582 41.4529C24.7021 41.4903 24.646 41.5184 24.5899 41.5558C24.5057 41.6025 24.4216 41.6586 24.3374 41.7053C24.2626 41.7521 24.1785 41.7988 24.0943 41.8362C24.0663 41.8549 24.0476 41.8643 24.0196 41.8736C23.9354 41.9204 23.8606 41.9578 23.7765 42.0045C23.7671 42.0139 23.7578 42.0139 23.7391 42.0232C23.6456 42.07 23.5521 42.1167 23.4586 42.1635C23.0379 42.3691 22.6078 42.5561 22.1777 42.7244C22.1123 42.7525 22.0375 42.7805 21.972 42.7992C21.8785 42.8366 21.785 42.8647 21.6915 42.9021C21.6074 42.9301 21.5139 42.9675 21.4298 42.9956C21.4017 43.0049 21.3737 43.0143 21.3363 43.0236C21.2521 43.0517 21.168 43.0797 21.0745 43.1078C21.0371 43.1171 20.9997 43.1358 20.9623 43.1452C20.8875 43.1639 20.822 43.1826 20.7566 43.2106C20.5977 43.2573 20.4294 43.3041 20.2704 43.3415C20.1956 43.3602 20.1115 43.3789 20.0273 43.3976C19.9806 43.4069 19.9245 43.4256 19.8778 43.435C19.6814 43.4817 19.4851 43.5191 19.2887 43.5565C19.2139 43.5659 19.1485 43.5846 19.0831 43.5939C18.9896 43.6126 18.8867 43.6313 18.7932 43.6407C18.7371 43.65 18.681 43.6594 18.6156 43.6687C18.5408 43.6781 18.466 43.6874 18.3912 43.6968C18.279 43.7061 18.1668 43.7248 18.0546 43.7342C17.9705 43.7435 17.8957 43.7529 17.8115 43.7622C17.7835 43.7622 17.7461 43.7716 17.718 43.7716C17.6245 43.7622 17.5404 43.7716 17.4562 43.7716C17.3441 43.7809 17.2412 43.7903 17.129 43.7903C16.9981 43.7996 16.8579 43.7996 16.727 43.809C16.5961 43.809 16.4559 43.8183 16.325 43.8183H16.3156C16.2689 43.8183 16.2221 43.8183 16.1754 43.8183C16.1286 43.8183 16.0819 43.8183 16.0351 43.8183C15.979 43.8183 15.9323 43.8183 15.8762 43.8183C15.8294 43.8183 15.7827 43.8183 15.7453 43.809C15.6612 43.809 15.5677 43.7996 15.4835 43.7996C15.3994 43.7996 15.3152 43.7903 15.2404 43.7809C15.1656 43.7809 15.1002 43.7716 15.0254 43.7622C14.8945 43.7529 14.7543 43.7342 14.6234 43.7248C14.586 43.7248 14.5486 43.7155 14.5112 43.7155C14.4364 43.7061 14.3522 43.6968 14.2774 43.6874C14.0531 43.6594 13.8287 43.6313 13.6043 43.5846C13.6043 43.5846 13.6043 43.5846 13.5949 43.5846C13.5108 43.5752 13.4266 43.5565 13.3518 43.5378C13.2771 43.5191 13.1836 43.5098 13.1088 43.4911C13.0433 43.4817 12.9779 43.463 12.9124 43.4537C12.8376 43.435 12.7628 43.4256 12.688 43.4069C12.6039 43.3882 12.5197 43.3695 12.445 43.3508C12.4076 43.3415 12.3702 43.3321 12.3328 43.3228C12.258 43.3041 12.1738 43.2854 12.099 43.2573C11.9588 43.22 11.8185 43.1826 11.6783 43.1358C11.6035 43.1078 11.5194 43.0891 11.4446 43.061C11.2108 42.9862 10.9771 42.9114 10.7434 42.8273C10.6686 42.7992 10.5844 42.7712 10.5096 42.7431C10.4348 42.7151 10.36 42.687 10.2852 42.6496C10.2104 42.6216 10.1356 42.5935 10.0608 42.5561C9.98605 42.5281 9.91125 42.4907 9.83646 42.4626C9.76166 42.4346 9.68687 42.3972 9.61207 42.3598C9.55598 42.3318 9.49053 42.3037 9.43443 42.2757C9.0885 42.1074 8.74257 41.9391 8.40599 41.7521C8.3312 41.7147 8.2564 41.6679 8.18161 41.6212C8.10681 41.5838 8.03202 41.5371 7.96657 41.4903C7.45235 41.1818 6.96618 40.8545 6.48936 40.4899C6.36782 40.3964 6.24627 40.3029 6.12473 40.2001C6.00319 40.0972 5.8723 39.9944 5.75075 39.8915C5.74141 39.8822 5.74141 39.8822 5.73206 39.8822C5.61986 39.7794 5.49832 39.6765 5.38613 39.5737C5.26458 39.4615 5.15239 39.3586 5.03085 39.2464C4.91865 39.1342 4.79711 39.0221 4.69427 38.9099C4.58208 38.7977 4.46988 38.6761 4.35769 38.5639C4.1333 38.3582 3.93696 38.1245 3.74997 37.8908C3.73128 37.8627 3.71258 37.844 3.69388 37.816C3.49754 37.5729 3.31055 37.3298 3.12356 37.0867C3.03007 36.9652 2.94592 36.8343 2.85243 36.7127C2.84308 36.7034 2.83373 36.6847 2.82438 36.6753C2.74024 36.5445 2.65609 36.4229 2.57195 36.292C2.4878 36.1611 2.40366 36.0302 2.32886 35.89C2.32886 35.8806 2.31951 35.8806 2.31951 35.8713C2.24472 35.7497 2.17927 35.6282 2.11382 35.516C2.10447 35.488 2.08578 35.4693 2.07643 35.4412C2.00163 35.3103 1.92683 35.1701 1.85204 35.0298C1.78659 34.899 1.7118 34.7681 1.6557 34.6372C1.64635 34.6278 1.64635 34.6091 1.637 34.5998C1.54351 34.4221 1.45936 34.2351 1.37522 34.0482C1.37522 34.0482 1.37522 34.0482 1.37522 34.0388C0.945144 33.0665 0.608564 32.038 0.374828 30.9722C0.328081 30.7478 0.281334 30.5328 0.243936 30.3084C0.243936 30.2897 0.234587 30.271 0.234587 30.2429C0.215888 30.1307 0.197189 30.0279 0.17849 29.9157C0.169141 29.8877 0.169141 29.8596 0.169141 29.8316C0.150442 29.7194 0.141093 29.6072 0.122394 29.495C0.103695 29.3828 0.0943454 29.2612 0.0849959 29.149C0.0756465 29.0649 0.066297 28.9808 0.0569476 28.8966C0.0475982 28.8405 0.0475982 28.7751 0.0382487 28.719C0.0382487 28.7096 0.0382487 28.7003 0.0382487 28.6909C0.0195499 28.4478 0.0102004 28.2048 0.000850992 27.9523C0.000850992 27.943 0.000850992 27.9243 0.000850992 27.9149C0.000850992 27.8588 0.000850992 27.8027 0.000850992 27.7373V27.6905C-0.0178479 25.8206 0.271985 24.0256 0.832951 22.352C0.917096 22.0996 1.00124 21.8565 1.09474 21.6134C1.14148 21.4919 1.18823 21.3703 1.24433 21.2488C1.29107 21.1366 1.33782 21.0244 1.39392 20.9122C1.44066 20.7907 1.49676 20.6785 1.55286 20.5663C1.83334 19.9679 2.15122 19.3882 2.49715 18.8366C2.63739 18.6216 2.77763 18.4065 2.92722 18.1915C2.98332 18.1167 3.03942 18.0326 3.09551 17.9578C3.20771 17.7988 3.32925 17.6492 3.44144 17.4997C3.49754 17.4249 3.56299 17.3501 3.61908 17.2753C3.70323 17.1724 3.77802 17.0789 3.86217 16.9761C4.03046 16.7797 4.19875 16.5834 4.37639 16.3964C4.60077 16.1627 4.82516 15.9289 5.0589 15.7139C6.5922 14.2554 8.40599 13.0867 10.4161 12.3014C10.6592 12.2079 10.9023 12.1144 11.1547 12.0396C11.5287 11.918 11.912 11.8058 12.2954 11.703C12.5571 11.6376 12.8096 11.5815 13.0714 11.5254C13.3331 11.4693 13.5949 11.4225 13.8661 11.3851C14.5299 11.2823 15.2124 11.2262 15.8949 11.2075C15.9603 11.1981 16.0258 11.1981 16.0912 11.1888C16.1006 11.1888 16.1006 11.1888 16.1099 11.1888H16.1286C16.2221 11.1794 16.3156 11.1794 16.4091 11.1794C16.4372 11.1794 16.4746 11.1794 16.5026 11.1794C16.5587 11.1794 16.6241 11.1794 16.6802 11.1888H16.6896C18.9241 11.3384 20.6818 13.1896 20.6818 15.4615C20.6818 17.724 18.9148 19.5846 16.6896 19.7342L16.5307 19.7435C16.4933 19.7435 16.4465 19.7435 16.4091 19.7435C16.3717 19.7435 16.3437 19.7435 16.3063 19.7435C14.4925 19.7435 12.8283 20.3606 11.51 21.3984C11.4165 21.4732 11.3137 21.5573 11.2202 21.6321C11.0893 21.7536 10.9584 21.8658 10.8275 21.9967L10.8088 22.0154C10.7247 22.0996 10.6312 22.1931 10.547 22.2866C10.3413 22.5203 10.145 22.7634 9.958 23.0158C9.88321 23.1187 9.81776 23.2215 9.75231 23.3243C9.71492 23.3804 9.68687 23.4272 9.64947 23.4833C9.58402 23.5955 9.51858 23.6983 9.46248 23.8105C9.41573 23.8947 9.36899 23.9788 9.33159 24.063C9.33159 24.0723 9.32224 24.0817 9.32224 24.091C9.27549 24.1751 9.23809 24.2686 9.2007 24.3528C9.2007 24.3621 9.19135 24.3621 9.19135 24.3715C9.1446 24.465 9.1072 24.5678 9.0698 24.6613C9.02306 24.7829 8.97631 24.8951 8.93891 25.0166C8.90152 25.1381 8.86412 25.2597 8.82672 25.3812C8.78932 25.5028 8.76127 25.6243 8.73322 25.7552C8.59298 26.3816 8.51819 27.0361 8.53689 27.7092C8.53689 27.7653 8.53689 27.8214 8.54624 27.8682C8.54624 27.943 8.55559 28.0178 8.55559 28.1019C8.55559 28.1113 8.55559 28.1206 8.55559 28.13C8.56494 28.2422 8.57428 28.345 8.58363 28.4572C8.59298 28.532 8.60233 28.6068 8.61168 28.6909C8.62103 28.7564 8.63038 28.8218 8.63973 28.8779C8.63973 28.8966 8.64908 28.9247 8.64908 28.9434C8.65843 28.9808 8.66778 29.0275 8.67713 29.0649C8.68648 29.121 8.70518 29.1771 8.71453 29.2332C8.73322 29.308 8.74257 29.3734 8.76127 29.4389C8.77062 29.495 8.78932 29.5511 8.80802 29.5978C8.89217 29.897 8.99501 30.1868 9.11655 30.4767C9.1633 30.5795 9.21005 30.6917 9.25679 30.7945C9.28484 30.8506 9.31289 30.9067 9.34094 30.9628C9.58402 31.4584 9.88321 31.9258 10.2291 32.3466C10.2385 32.3559 10.2572 32.3746 10.2665 32.384C10.2946 32.4214 10.3226 32.4587 10.3507 32.4868C10.3507 32.4868 10.3507 32.4961 10.36 32.4961C10.4068 32.5522 10.4535 32.6083 10.5003 32.6644C10.5564 32.7299 10.6125 32.786 10.6686 32.8514C10.7527 32.9449 10.8462 33.0384 10.9397 33.1226C10.9958 33.1787 11.0519 33.2348 11.1173 33.2815C11.2669 33.4217 11.4259 33.5433 11.5848 33.6648C11.6596 33.7209 11.7437 33.7864 11.8279 33.8425C11.8933 33.8892 11.9681 33.936 12.0336 33.9827C12.2112 34.1042 12.3889 34.2071 12.5852 34.3099C12.8563 34.4502 13.1275 34.5904 13.4173 34.7026C13.5295 34.7494 13.6323 34.7868 13.7445 34.8242C13.8006 34.8429 13.8567 34.8616 13.9128 34.8803C13.9689 34.899 14.025 34.9177 14.0718 34.927C14.2026 34.9644 14.3335 35.0018 14.4644 35.0298C14.5579 35.0579 14.6514 35.0766 14.7543 35.0953C14.9506 35.1327 15.1376 35.1701 15.3339 35.1888C15.3994 35.1981 15.4555 35.2075 15.5209 35.2075H15.5303C15.577 35.2168 15.6238 35.2168 15.6612 35.2168C15.6986 35.2168 15.7453 35.2262 15.7827 35.2262C15.7921 35.2262 15.8107 35.2262 15.8201 35.2262C15.8668 35.2262 15.9136 35.2355 15.951 35.2355C15.951 35.2355 15.951 35.2355 15.9603 35.2355C16.0164 35.2355 16.0632 35.2449 16.1193 35.2449C16.1847 35.2449 16.2502 35.2449 16.325 35.2449C16.4559 35.2449 16.5961 35.2449 16.727 35.2355C16.7831 35.2355 16.8392 35.2262 16.8953 35.2262C16.9607 35.2168 17.0168 35.2168 17.0823 35.2075C17.1477 35.1981 17.2038 35.1981 17.2693 35.1888C17.316 35.1794 17.3628 35.1794 17.4189 35.1701C17.6245 35.142 17.8302 35.1046 18.0359 35.0579C18.0733 35.0485 18.1107 35.0392 18.1481 35.0298C18.1855 35.0205 18.2323 35.0111 18.2697 35.0018C18.3351 34.9831 18.3912 34.9737 18.4566 34.955C18.5221 34.9363 18.5782 34.9176 18.6436 34.8989C18.6997 34.8803 18.7558 34.8616 18.8119 34.8429C18.8774 34.8242 18.9428 34.7961 18.9989 34.7774C19.055 34.7587 19.1204 34.74 19.1765 34.712C19.2326 34.6839 19.2981 34.6652 19.3542 34.6372C19.4103 34.6091 19.4664 34.5904 19.5318 34.5624C19.5786 34.5437 19.6253 34.5156 19.6814 34.4969C19.9152 34.3847 20.1489 34.2632 20.3639 34.1229C20.5135 34.0388 20.6538 33.9453 20.794 33.8425C20.8127 33.8238 20.8407 33.8144 20.8594 33.7957C20.8968 33.7677 20.9436 33.7396 20.981 33.7022C21.0277 33.6648 21.0838 33.6274 21.1306 33.59C21.1773 33.5526 21.2241 33.5152 21.2802 33.4685C21.4017 33.375 21.5139 33.2721 21.6261 33.1693C21.6635 33.1319 21.7009 33.1039 21.7289 33.0665C21.9159 32.8888 22.0936 32.6925 22.2619 32.4961C22.2993 32.4587 22.3273 32.4214 22.3554 32.384C22.4021 32.3279 22.4488 32.2718 22.4956 32.2063C22.561 32.1222 22.6171 32.0474 22.6732 31.9632C22.7106 31.9071 22.7574 31.851 22.7948 31.7856C22.8041 31.7669 22.8228 31.7482 22.8322 31.7295C22.8602 31.6921 22.8883 31.6453 22.9163 31.608C22.935 31.5893 22.9444 31.5612 22.9537 31.5425C22.9911 31.4864 23.0285 31.421 23.0659 31.3649C23.0846 31.3368 23.1033 31.2994 23.122 31.2714C23.1594 31.2059 23.1968 31.1405 23.2342 31.075C23.2716 31.0002 23.309 30.9348 23.3464 30.86C23.3464 30.8506 23.3557 30.8506 23.3557 30.8413C23.4305 30.6824 23.496 30.5328 23.5614 30.3645C23.5708 30.3364 23.5801 30.3084 23.5895 30.2803C23.6456 30.1494 23.6923 30.0092 23.7391 29.8783C23.8887 29.4202 23.9915 28.9527 24.057 28.4665C24.0663 28.4104 24.0663 28.3543 24.0757 28.3076C24.085 28.2702 24.085 28.2235 24.085 28.1767C24.1037 27.943 24.113 27.7186 24.113 27.4755V5.03685C24.113 3.85882 24.5899 2.79299 25.3659 2.01698C25.7679 1.60561 26.2634 1.28773 26.8057 1.07269C26.9085 1.03529 27.0114 0.997896 27.1142 0.960498C27.1984 0.93245 27.2825 0.913751 27.3667 0.895052C27.4788 0.867004 27.5817 0.848305 27.6939 0.829606C27.8902 0.782859 28.1146 0.76416 28.3483 0.76416C28.4044 0.76416 28.4512 0.76416 28.5073 0.76416C28.5447 0.76416 28.5727 0.76416 28.6101 0.77351C28.6475 0.77351 28.6849 0.782859 28.7223 0.782859C28.7504 0.782859 28.7878 0.792208 28.8158 0.792208C28.8532 0.792208 28.8906 0.801558 28.928 0.810907C28.9654 0.820257 29.0122 0.820257 29.0496 0.829606C29.0682 0.829606 29.0869 0.838956 29.115 0.838956C29.1711 0.848305 29.2272 0.857655 29.2833 0.876353C31.2093 1.30643 32.621 3.08282 32.621 5.13035Z" fill="#008A5F"/>
<path d="M32.621 5.13035V27.2698C32.621 27.2792 32.621 27.2885 32.621 27.2979C32.621 27.3727 32.621 27.4475 32.621 27.5129C32.621 28.7096 32.4901 29.8783 32.2471 31.0096C32.219 31.1592 32.1816 31.2994 32.1442 31.449C32.1068 31.5986 32.0694 31.7388 32.032 31.8884C32.004 31.9913 31.9759 32.0941 31.9385 32.197C31.9198 32.2531 31.9011 32.3092 31.8824 32.3653C31.8544 32.4587 31.8263 32.5616 31.7889 32.6551C31.7796 32.7018 31.7609 32.7392 31.7422 32.786C31.7048 32.9075 31.658 33.0384 31.6113 33.16C31.5552 33.3282 31.4898 33.4872 31.4243 33.6461C31.3776 33.7583 31.3308 33.8705 31.2841 33.9827C31.228 34.1042 31.1719 34.2351 31.1158 34.3567C31.1064 34.366 31.1064 34.3754 31.1064 34.3847C31.0971 34.3941 31.0971 34.4034 31.0877 34.4128C30.6016 35.4599 30.0032 36.4416 29.3113 37.3485C29.1804 37.5261 29.0496 37.6944 28.9093 37.8627C28.6288 38.2087 28.3296 38.5452 28.0118 38.8631C27.8622 39.0127 27.7126 39.1623 27.563 39.3119C27.5536 39.3212 27.5443 39.3306 27.5349 39.3399C27.4882 39.3867 27.4321 39.4334 27.376 39.4802C27.3667 39.4895 27.3667 39.4895 27.3667 39.4895C27.2919 39.5643 27.2077 39.6298 27.1329 39.6952C27.1236 39.7046 27.1142 39.7139 27.1049 39.7233C27.0301 39.7887 26.9646 39.8542 26.8898 39.9102C26.5906 40.172 26.2821 40.4151 25.9642 40.6489C25.8146 40.761 25.6744 40.8639 25.5248 40.9667C25.45 41.0135 25.3846 41.0602 25.3098 41.107C25.1321 41.2285 24.9451 41.3407 24.7582 41.4529C24.7021 41.4903 24.646 41.5184 24.5899 41.5558C24.5057 41.6025 24.4216 41.6586 24.3374 41.7053C24.2626 41.7521 24.1785 41.7988 24.0943 41.8362C24.0663 41.8549 24.0476 41.8643 24.0196 41.8736C23.9354 41.9204 23.8606 41.9578 23.7765 42.0045C23.7671 42.0139 23.7578 42.0139 23.7391 42.0232C23.6456 42.07 23.5521 42.1167 23.4586 42.1635C23.0379 42.3691 22.6078 42.5561 22.1777 42.7244C22.1123 42.7525 22.0375 42.7805 21.972 42.7992C21.8785 42.8366 21.785 42.8647 21.6915 42.9021C21.6074 42.9301 21.5139 42.9675 21.4298 42.9956C21.4017 43.0049 21.3737 43.0143 21.3363 43.0236C21.2521 43.0517 21.168 43.0797 21.0745 43.1078C21.0371 43.1171 20.9997 43.1358 20.9623 43.1452C20.8875 43.1639 20.822 43.1826 20.7566 43.2106C20.5977 43.2573 20.4294 43.3041 20.2704 43.3415C20.1956 43.3602 20.1115 43.3789 20.0273 43.3976C19.9806 43.4069 19.9245 43.4256 19.8778 43.435C19.6814 43.4817 19.4851 43.5191 19.2887 43.5565C19.2139 43.5659 19.1485 43.5846 19.0831 43.5939C18.9896 43.6126 18.8867 43.6313 18.7932 43.6407C18.7371 43.65 18.681 43.6594 18.6156 43.6687C18.5408 43.6781 18.466 43.6874 18.3912 43.6968C18.279 43.7061 18.1668 43.7248 18.0546 43.7342C17.9705 43.7435 17.8957 43.7529 17.8115 43.7622C17.7835 43.7622 17.7461 43.7716 17.718 43.7716C17.6245 43.7622 17.5404 43.7716 17.4562 43.7716C17.3441 43.7809 17.2412 43.7903 17.129 43.7903C16.9981 43.7996 16.8579 43.7996 16.727 43.809C16.5961 43.809 16.4559 43.8183 16.325 43.8183H16.3156C16.2689 43.8183 16.2221 43.8183 16.1754 43.8183C16.1286 43.8183 16.0819 43.8183 16.0351 43.8183C15.979 43.8183 15.9323 43.8183 15.8762 43.8183C15.8294 43.8183 15.7827 43.8183 15.7453 43.809C15.6612 43.809 15.5677 43.7996 15.4835 43.7996C15.3994 43.7996 15.3152 43.7903 15.2404 43.7809C15.1656 43.7809 15.1002 43.7716 15.0254 43.7622C14.8945 43.7529 14.7543 43.7342 14.6234 43.7248C14.586 43.7248 14.5486 43.7155 14.5112 43.7155C14.4364 43.7061 14.3522 43.6968 14.2774 43.6874C14.0531 43.6594 13.8287 43.6313 13.6043 43.5846C13.6043 43.5846 13.6043 43.5846 13.5949 43.5846C13.5108 43.5752 13.4266 43.5565 13.3518 43.5378C13.2771 43.5191 13.1836 43.5098 13.1088 43.4911C13.0433 43.4817 12.9779 43.463 12.9124 43.4537C12.8376 43.435 12.7628 43.4256 12.688 43.4069C12.6039 43.3882 12.5197 43.3695 12.445 43.3508C12.4076 43.3415 12.3702 43.3321 12.3328 43.3228C12.258 43.3041 12.1738 43.2854 12.099 43.2573C11.9588 43.22 11.8185 43.1826 11.6783 43.1358C11.6035 43.1078 11.5194 43.0891 11.4446 43.061C11.2108 42.9862 10.9771 42.9114 10.7434 42.8273C10.6686 42.7992 10.5844 42.7712 10.5096 42.7431C10.4348 42.7151 10.36 42.687 10.2852 42.6496C10.2104 42.6216 10.1356 42.5935 10.0608 42.5561C9.98605 42.5281 9.91125 42.4907 9.83646 42.4626C9.76166 42.4346 9.68687 42.3972 9.61207 42.3598C9.55598 42.3318 9.49053 42.3037 9.43443 42.2757C9.0885 42.1074 8.74257 41.9391 8.40599 41.7521C8.3312 41.7147 8.2564 41.6679 8.18161 41.6212C8.10681 41.5838 8.03202 41.5371 7.96657 41.4903C7.45235 41.1818 6.96618 40.8545 6.48936 40.4899C6.36782 40.3964 6.24627 40.3029 6.12473 40.2001C6.00319 40.0972 5.8723 39.9944 5.75075 39.8915C5.74141 39.8822 5.74141 39.8822 5.73206 39.8822C5.61986 39.7794 5.49832 39.6765 5.38613 39.5737C5.26458 39.4615 5.15239 39.3586 5.03085 39.2464C4.91865 39.1342 4.79711 39.0221 4.69427 38.9099C4.58208 38.7977 4.46988 38.6761 4.35769 38.5639C4.1333 38.3582 3.93696 38.1245 3.74997 37.8908C3.73128 37.8627 3.71258 37.844 3.69388 37.816C3.49754 37.5729 3.31055 37.3298 3.12356 37.0867C3.03007 36.9652 2.94592 36.8343 2.85243 36.7127C2.84308 36.7034 2.83373 36.6847 2.82438 36.6753C2.74024 36.5445 2.65609 36.4229 2.57195 36.292C2.4878 36.1611 2.40366 36.0302 2.32886 35.89C2.32886 35.8806 2.31951 35.8806 2.31951 35.8713C2.24472 35.7497 2.17927 35.6282 2.11382 35.516C2.10447 35.488 2.08578 35.4693 2.07643 35.4412C2.00163 35.3103 1.92683 35.1701 1.85204 35.0298C1.78659 34.899 1.7118 34.7681 1.6557 34.6372C1.64635 34.6278 1.64635 34.6091 1.637 34.5998C1.54351 34.4221 1.45936 34.2351 1.37522 34.0482C1.37522 34.0482 1.37522 34.0482 1.37522 34.0388C0.945144 33.0665 0.608564 32.038 0.374828 30.9722C0.328081 30.7478 0.281334 30.5328 0.243936 30.3084C0.243936 30.2897 0.234587 30.271 0.234587 30.2429C0.215888 30.1307 0.197189 30.0279 0.17849 29.9157C0.169141 29.8877 0.169141 29.8596 0.169141 29.8316C0.150442 29.7194 0.141093 29.6072 0.122394 29.495C0.103695 29.3828 0.0943454 29.2612 0.0849959 29.149C0.0756465 29.0649 0.066297 28.9808 0.0569476 28.8966C0.0475982 28.8405 0.0475982 28.7751 0.0382487 28.719C0.0382487 28.7096 0.0382487 28.7003 0.0382487 28.6909C0.0195499 28.4478 0.0102004 28.2048 0.000850992 27.9523C0.000850992 27.943 0.000850992 27.9243 0.000850992 27.9149C0.000850992 27.8588 0.000850992 27.8027 0.000850992 27.7373V27.6905C-0.0178479 25.8206 0.271985 24.0256 0.832951 22.352C0.917096 22.0996 1.00124 21.8565 1.09474 21.6134C1.14148 21.4919 1.18823 21.3703 1.24433 21.2488C1.29107 21.1366 1.33782 21.0244 1.39392 20.9122C1.44066 20.7907 1.49676 20.6785 1.55286 20.5663C1.83334 19.9679 2.15122 19.3882 2.49715 18.8366C2.63739 18.6216 2.77763 18.4065 2.92722 18.1915C2.98332 18.1167 3.03942 18.0326 3.09551 17.9578C3.20771 17.7988 3.32925 17.6492 3.44144 17.4997C3.49754 17.4249 3.56299 17.3501 3.61908 17.2753C3.70323 17.1724 3.77802 17.0789 3.86217 16.9761C4.03046 16.7797 4.19875 16.5834 4.37639 16.3964C4.60077 16.1627 4.82516 15.9289 5.0589 15.7139C5.46092 15.6017 5.891 15.5363 6.33977 15.5363C8.98566 15.5363 11.136 17.6866 11.136 20.3325C11.136 20.3886 11.136 20.4541 11.1267 20.5102C11.108 21.0337 11.0051 21.5293 10.8368 21.9967L10.8181 22.0154C10.734 22.0996 10.6405 22.1931 10.5564 22.2866C10.3507 22.5203 10.1543 22.7634 9.96735 23.0158C9.89255 23.1187 9.82711 23.2215 9.76166 23.3243C9.72427 23.3804 9.69622 23.4272 9.65882 23.4833C9.59337 23.5955 9.52793 23.6983 9.47183 23.8105C9.42508 23.8947 9.37833 23.9788 9.34094 24.063C9.34094 24.0723 9.33159 24.0817 9.33159 24.091C9.28484 24.1751 9.24744 24.2686 9.21005 24.3528C9.21005 24.3621 9.2007 24.3621 9.2007 24.3715C9.15395 24.465 9.11655 24.5678 9.07915 24.6613C9.03241 24.7829 8.98566 24.8951 8.94826 25.0166C8.91086 25.1381 8.87347 25.2597 8.83607 25.3812C8.79867 25.5028 8.77062 25.6243 8.74257 25.7552C8.60233 26.3816 8.52754 27.0361 8.54624 27.7092C8.54624 27.7653 8.54624 27.8214 8.55559 27.8682C8.55559 27.943 8.56493 28.0178 8.56493 28.1019C8.56493 28.1113 8.56493 28.1206 8.56493 28.13C8.57428 28.2422 8.58363 28.345 8.59298 28.4572C8.60233 28.532 8.61168 28.6068 8.62103 28.6909C8.63038 28.7564 8.63973 28.8218 8.64908 28.8779C8.64908 28.8966 8.65843 28.9247 8.65843 28.9434C8.66778 28.9808 8.67713 29.0275 8.68648 29.0649C8.69583 29.121 8.71453 29.1771 8.72388 29.2332C8.74257 29.308 8.75192 29.3734 8.77062 29.4389C8.77997 29.495 8.79867 29.5511 8.81737 29.5978C8.90152 29.897 9.00436 30.1868 9.1259 30.4767C9.17265 30.5795 9.21939 30.6917 9.26614 30.7945C9.29419 30.8506 9.32224 30.9067 9.35029 30.9628C9.59337 31.4584 9.89255 31.9258 10.2385 32.3466C10.2478 32.3559 10.2665 32.3746 10.2759 32.384C10.3039 32.4214 10.332 32.4587 10.36 32.4868C10.36 32.4868 10.36 32.4961 10.3694 32.4961C10.4161 32.5522 10.4629 32.6083 10.5096 32.6644C10.5657 32.7299 10.6218 32.786 10.6779 32.8514C10.7621 32.9449 10.8555 33.0384 10.949 33.1226C11.0051 33.1787 11.0612 33.2348 11.1267 33.2815C11.2763 33.4217 11.4352 33.5433 11.5942 33.6648C11.6689 33.7209 11.7531 33.7864 11.8372 33.8425C11.9027 33.8892 11.9775 33.936 12.0429 33.9827C12.2206 34.1042 12.3982 34.2071 12.5945 34.3099C12.8657 34.4502 13.1368 34.5904 13.4266 34.7026C13.5388 34.7494 13.6417 34.7868 13.7539 34.8242C13.81 34.8429 13.8661 34.8616 13.9222 34.8803C13.9783 34.899 14.0344 34.9177 14.0811 34.927C14.212 34.9644 14.3429 35.0018 14.4738 35.0298C14.5673 35.0579 14.6608 35.0766 14.7636 35.0953C14.9599 35.1327 15.1469 35.1701 15.3433 35.1888C15.4087 35.1981 15.4648 35.2075 15.5303 35.2075H15.5396C15.5864 35.2168 15.6331 35.2168 15.6705 35.2168C15.7079 35.2168 15.7547 35.2262 15.792 35.2262C15.8014 35.2262 15.8201 35.2262 15.8294 35.2262C15.8762 35.2262 15.9229 35.2355 15.9603 35.2355C15.9603 35.2355 15.9603 35.2355 15.9697 35.2355C16.0258 35.2355 16.0725 35.2449 16.1286 35.2449C16.1941 35.2449 16.2595 35.2449 16.3343 35.2449C16.4652 35.2449 16.6054 35.2449 16.7363 35.2355C16.7924 35.2355 16.8485 35.2262 16.9046 35.2262C16.9701 35.2168 17.0262 35.2168 17.0916 35.2075C17.1571 35.1981 17.2132 35.1981 17.2786 35.1888C17.3254 35.1794 17.3721 35.1794 17.4282 35.1701C17.6339 35.142 17.8396 35.1046 18.0453 35.0579C18.0827 35.0485 18.1201 35.0392 18.1575 35.0298C18.1949 35.0205 18.2416 35.0111 18.279 35.0018C18.3444 34.9831 18.4005 34.9737 18.466 34.955C18.5314 34.9363 18.5875 34.9176 18.653 34.8989C18.7091 34.8803 18.7652 34.8616 18.8213 34.8429C18.8867 34.8242 18.9522 34.7961 19.0083 34.7774C19.0644 34.7587 19.1298 34.74 19.1859 34.712C19.242 34.6839 19.3074 34.6652 19.3635 34.6372C19.4196 34.6091 19.4757 34.5904 19.5412 34.5624C19.5879 34.5437 19.6347 34.5156 19.6908 34.4969C19.9245 34.3847 20.1582 34.2632 20.3733 34.1229C20.5229 34.0388 20.6631 33.9453 20.8033 33.8425C20.822 33.8238 20.8501 33.8144 20.8688 33.7957C20.9062 33.7677 20.9529 33.7396 20.9903 33.7022C21.0371 33.6648 21.0932 33.6274 21.1399 33.59C21.1867 33.5526 21.2334 33.5152 21.2895 33.4685C21.4111 33.375 21.5233 33.2721 21.6354 33.1693C21.6728 33.1319 21.7102 33.1039 21.7383 33.0665C21.9253 32.8888 22.1029 32.6925 22.2712 32.4961C22.3086 32.4587 22.3367 32.4214 22.3647 32.384C22.4115 32.3279 22.4582 32.2718 22.5049 32.2063C22.5704 32.1222 22.6265 32.0474 22.6826 31.9632C22.72 31.9071 22.7667 31.851 22.8041 31.7856C22.8135 31.7669 22.8322 31.7482 22.8415 31.7295C22.8696 31.6921 22.8976 31.6453 22.9257 31.608C22.9444 31.5893 22.9537 31.5612 22.9631 31.5425C23.0005 31.4864 23.0379 31.421 23.0753 31.3649C23.094 31.3368 23.1127 31.2994 23.1314 31.2714C23.1688 31.2059 23.2062 31.1405 23.2436 31.075C23.2809 31.0002 23.3183 30.9348 23.3557 30.86C23.3557 30.8506 23.3651 30.8506 23.3651 30.8413C23.4399 30.6824 23.5053 30.5328 23.5708 30.3645C23.5801 30.3364 23.5895 30.3084 23.5988 30.2803C23.6549 30.1494 23.7017 30.0092 23.7484 29.8783C23.898 29.4202 24.0009 28.9527 24.0663 28.4665C24.0756 28.4104 24.0757 28.3543 24.085 28.3076C24.0943 28.2702 24.0943 28.2235 24.0943 28.1767C24.113 27.943 24.1224 27.7186 24.1224 27.4755V5.03685C24.1224 3.85882 24.5992 2.79299 25.3752 2.01698C25.7772 1.60561 26.2728 1.28773 26.815 1.07269C26.9179 1.03529 27.0207 0.997896 27.1236 0.960498C27.2077 0.93245 27.2919 0.913751 27.376 0.895052C27.4882 0.867004 27.591 0.848305 27.7032 0.829606C27.8902 0.782859 28.1146 0.76416 28.3483 0.76416C28.4044 0.76416 28.4512 0.76416 28.5073 0.76416C28.5447 0.76416 28.5727 0.76416 28.6101 0.77351C28.6475 0.77351 28.6849 0.782859 28.7223 0.782859C28.7504 0.782859 28.7878 0.792208 28.8158 0.792208C28.8532 0.792208 28.8906 0.801558 28.928 0.810907C28.9654 0.820257 29.0122 0.820257 29.0496 0.829606C29.0682 0.829606 29.0869 0.838956 29.115 0.838956C29.1711 0.848305 29.2272 0.857655 29.2833 0.876353C31.2093 1.30643 32.621 3.08282 32.621 5.13035Z" fill="#2A8BCB"/>
<path d="M32.621 5.1301V27.2696C32.621 27.2789 32.621 27.2883 32.621 27.2976C32.621 27.3724 32.621 27.4472 32.621 27.5127C32.621 28.7094 32.4902 29.8781 32.2471 31.0093C32.219 31.1589 32.1816 31.2992 32.1442 31.4488C32.1068 31.5984 32.0694 31.7386 32.032 31.8882C32.004 31.991 31.9759 32.0939 31.9385 32.1967C31.9198 32.2528 31.9011 32.3089 31.8824 32.365C31.8544 32.4585 31.8263 32.5613 31.7889 32.6548C31.7796 32.7016 31.7609 32.739 31.7422 32.7857C31.7048 32.9073 31.6581 33.0382 31.6113 33.1597C31.5552 33.328 31.4898 33.4869 31.4243 33.6459C31.3776 33.7581 31.3308 33.8703 31.2841 33.9825C31.228 34.104 31.1719 34.2349 31.1158 34.3564C31.1064 34.3658 31.1064 34.3751 31.1064 34.3845C31.0971 34.3938 31.0971 34.4032 31.0877 34.4125C30.6016 35.4597 30.0032 36.4414 29.3113 37.3483C29.1805 37.5259 29.0496 37.6942 28.9093 37.8625C28.6288 38.2084 28.3297 38.545 28.0118 38.8629C27.8622 39.0125 27.7126 39.162 27.563 39.3116C27.5537 39.321 27.5443 39.3303 27.535 39.3397C27.4882 39.3864 27.4321 39.4332 27.376 39.4799C27.3667 39.4893 27.3667 39.4893 27.3667 39.4893C27.2919 39.5641 27.2077 39.6295 27.1329 39.695C27.1236 39.7043 27.1142 39.7137 27.1049 39.723C27.0301 39.7885 26.9646 39.8539 26.8898 39.91C26.5907 40.1718 26.2821 40.4149 25.9643 40.6486C25.8147 40.7608 25.6744 40.8636 25.5248 40.9665C25.45 41.0132 25.3846 41.06 25.3098 41.1067C25.1321 41.2283 24.9452 41.3405 24.7582 41.4527C24.7021 41.4901 24.646 41.5181 24.5899 41.5555C24.5057 41.6023 24.4216 41.6584 24.3374 41.7051C24.2627 41.7518 24.1785 41.7986 24.0944 41.836C24.0663 41.8547 24.0476 41.864 24.0196 41.8734C23.9354 41.9201 23.8606 41.9575 23.7765 42.0043C23.7671 42.0136 23.7578 42.0136 23.7391 42.023C23.6456 42.0697 23.5521 42.1165 23.4586 42.1632C23.0379 42.3689 22.6078 42.5559 22.1777 42.7242C22.1123 42.7522 22.0375 42.7803 21.972 42.799C21.8785 42.8364 21.7851 42.8644 21.6916 42.9018C21.6074 42.9299 21.5139 42.9673 21.4298 42.9953C21.4017 43.0047 21.3737 43.014 21.3363 43.0234C21.2521 43.0514 21.168 43.0795 21.0745 43.1075C21.0371 43.1169 20.9997 43.1356 20.9623 43.1449C20.8875 43.1636 20.8221 43.1823 20.7566 43.2104C20.5977 43.2571 20.4294 43.3039 20.2704 43.3412C20.1956 43.3599 20.1115 43.3786 20.0274 43.3973C19.9806 43.4067 19.9245 43.4254 19.8778 43.4347C19.6814 43.4815 19.4851 43.5189 19.2888 43.5563C19.214 43.5656 19.1485 43.5843 19.0831 43.5937C18.9896 43.6124 18.8867 43.6311 18.7932 43.6404C18.7371 43.6498 18.681 43.6591 18.6156 43.6685C18.5408 43.6778 18.466 43.6872 18.3912 43.6965C18.279 43.7059 18.1668 43.7246 18.0546 43.7339C17.9705 43.7433 17.8957 43.7526 17.8115 43.762C17.7835 43.762 17.7461 43.7713 17.718 43.7713C17.6246 43.762 17.5404 43.7713 17.4563 43.7713C17.3441 43.7807 17.2412 43.79 17.129 43.79C16.9981 43.7994 16.8579 43.7994 16.727 43.8087C16.5961 43.8087 16.4559 43.8181 16.325 43.8181H16.3156C16.2689 43.8181 16.2221 43.8181 16.1754 43.8181C16.1286 43.8181 16.0819 43.8181 16.0351 43.8181C15.9791 43.8181 15.9323 43.8181 15.8762 43.8181C15.8295 43.8181 15.7827 43.8181 15.7453 43.8087C15.6612 43.8087 15.5677 43.7994 15.4835 43.7994C15.3994 43.7994 15.3152 43.79 15.2404 43.7807C15.1657 43.7807 15.1002 43.7713 15.0254 43.762C14.8945 43.7526 14.7543 43.7339 14.6234 43.7246C14.586 43.7246 14.5486 43.7152 14.5112 43.7152C14.4364 43.7059 14.3522 43.6965 14.2775 43.6872C14.0531 43.6591 13.8287 43.6311 13.6043 43.5843C13.6043 43.5843 13.6043 43.5843 13.5949 43.5843C13.5108 43.575 13.4267 43.5563 13.3519 43.5376C13.2771 43.5189 13.1836 43.5095 13.1088 43.4908C13.0433 43.4815 12.9779 43.4628 12.9124 43.4534C12.8376 43.4347 12.7628 43.4254 12.688 43.4067C12.6039 43.388 12.5198 43.3693 12.445 43.3506C12.4076 43.3412 12.3702 43.3319 12.3328 43.3226C12.258 43.3039 12.1738 43.2852 12.099 43.2571C11.9588 43.2197 11.8186 43.1823 11.6783 43.1356C11.6035 43.1075 11.5194 43.0888 11.4446 43.0608C11.2108 42.986 10.9771 42.9112 10.7434 42.827C10.6686 42.799 10.5844 42.7709 10.5096 42.7429C10.4348 42.7148 10.36 42.6868 10.2852 42.6494C10.2104 42.6213 10.1357 42.5933 10.0609 42.5559C9.98606 42.5278 9.91127 42.4904 9.83647 42.4624C9.76168 42.4344 9.68688 42.397 9.61209 42.3596C9.55599 42.3315 9.49054 42.3035 9.43445 42.2754C9.08852 42.1071 8.74259 41.9388 8.40601 41.7518C8.33121 41.7144 8.25642 41.6677 8.18162 41.621C8.10683 41.5836 8.03203 41.5368 7.96658 41.4901C7.45237 41.1815 6.96619 40.8543 6.48937 40.4897C6.36783 40.3962 6.24629 40.3027 6.12475 40.1998C6.0032 40.097 5.87231 39.9941 5.75077 39.8913C5.74142 39.882 5.74142 39.882 5.73207 39.882C5.61988 39.7791 5.49833 39.6763 5.38614 39.5734C5.2646 39.4612 5.1524 39.3584 5.03086 39.2462C4.91867 39.134 4.79713 39.0218 4.69428 38.9096C4.58209 38.7974 4.4699 38.6759 4.3577 38.5637C4.13332 38.358 3.93698 38.1243 3.74999 37.8905C3.73129 37.8625 3.71259 37.8438 3.69389 37.8157C3.49755 37.5726 3.31056 37.3296 3.12358 37.0865C3.03008 36.9649 2.94594 36.834 2.85244 36.7125C2.84309 36.7031 2.83374 36.6844 2.82439 36.6751C2.74025 36.5442 2.6561 36.4227 2.57196 36.2918C2.48781 36.1609 2.40367 36.03 2.32887 35.8897C2.32887 35.8804 2.31952 35.8804 2.31952 35.871C2.24473 35.7495 2.17928 35.628 2.11384 35.5158C2.10449 35.4877 2.08579 35.469 2.07644 35.441C2.00164 35.3101 1.92685 35.1698 1.85205 35.0296C1.78661 34.8987 1.71181 34.7678 1.65571 34.6369C1.64637 34.6276 1.64637 34.6089 1.63702 34.5995C1.53417 34.4219 1.45003 34.2349 1.37523 34.0479C1.37523 34.0479 1.37523 34.0479 1.37523 34.0386C1.17889 33.5337 1.07605 32.9821 1.07605 32.4024C1.07605 29.8687 3.13293 27.8118 5.66662 27.8118C6.82595 27.8118 7.88244 28.2419 8.68649 28.9525C8.69584 28.9899 8.70519 29.0366 8.71454 29.074C8.72389 29.1301 8.74259 29.1862 8.75194 29.2423C8.77064 29.3171 8.77998 29.3825 8.79868 29.448C8.80803 29.5041 8.82673 29.5602 8.84543 29.6069C8.92958 29.9061 9.03242 30.1959 9.15396 30.4858C9.20071 30.5886 9.24746 30.7008 9.2942 30.8037C9.32225 30.8598 9.3503 30.9158 9.37835 30.9719C9.62143 31.4675 9.92062 31.9349 10.2665 32.3557C10.2759 32.365 10.2946 32.3837 10.3039 32.3931C10.332 32.4305 10.36 32.4679 10.3881 32.4959C10.3881 32.4959 10.3881 32.5053 10.3974 32.5053C10.4442 32.5613 10.4909 32.6174 10.5377 32.6735C10.5938 32.739 10.6499 32.7951 10.706 32.8605C10.7901 32.954 10.8836 33.0475 10.9771 33.1317C11.0332 33.1878 11.0893 33.2439 11.1547 33.2906C11.3043 33.4308 11.4633 33.5524 11.6222 33.6739C11.697 33.73 11.7812 33.7955 11.8653 33.8516C11.9307 33.8983 12.0055 33.9451 12.071 33.9918C12.2486 34.1134 12.4263 34.2162 12.6226 34.319C12.8937 34.4593 13.1649 34.5995 13.4547 34.7117C13.5669 34.7585 13.6697 34.7959 13.7819 34.8333C13.838 34.852 13.8941 34.8707 13.9502 34.8894C14.0063 34.9081 14.0624 34.9268 14.1092 34.9361C14.2401 34.9735 14.3709 35.0109 14.5018 35.0389C14.5953 35.067 14.6888 35.0857 14.7917 35.1044C14.988 35.1418 15.175 35.1792 15.3713 35.1979C15.4368 35.2072 15.4929 35.2166 15.5583 35.2166H15.5677C15.6144 35.2259 15.6612 35.2259 15.6986 35.2259C15.736 35.2259 15.7827 35.2353 15.8201 35.2353C15.8295 35.2353 15.8482 35.2353 15.8575 35.2353C15.9043 35.2353 15.951 35.2446 15.9884 35.2446C15.9884 35.2446 15.9884 35.2446 15.9978 35.2446C16.0538 35.2446 16.1006 35.254 16.1567 35.254C16.2221 35.254 16.2876 35.254 16.3624 35.254C16.4933 35.254 16.6335 35.254 16.7644 35.2446C16.8205 35.2446 16.8766 35.2353 16.9327 35.2353C16.9981 35.2259 17.0542 35.2259 17.1197 35.2166C17.1851 35.2072 17.2412 35.2072 17.3067 35.1979C17.3534 35.1885 17.4002 35.1885 17.4563 35.1792C17.6619 35.1511 17.8676 35.1137 18.0733 35.067C18.1107 35.0576 18.1481 35.0483 18.1855 35.0389C18.2229 35.0296 18.2697 35.0203 18.3071 35.0109C18.3725 34.9922 18.4286 34.9829 18.4941 34.9642C18.5595 34.9455 18.6156 34.9268 18.681 34.9081C18.7371 34.8894 18.7932 34.8707 18.8493 34.852C18.9148 34.8333 18.9802 34.8052 19.0363 34.7865C19.0924 34.7678 19.1579 34.7491 19.214 34.7211C19.2701 34.693 19.3355 34.6743 19.3916 34.6463C19.4477 34.6182 19.5038 34.5995 19.5692 34.5715C19.616 34.5528 19.6627 34.5247 19.7188 34.506C19.9526 34.3938 20.1863 34.2723 20.4013 34.1321C20.5509 34.0479 20.6912 33.9544 20.8314 33.8516C20.8501 33.8329 20.8782 33.8235 20.8969 33.8048C20.9343 33.7768 20.981 33.7487 21.0184 33.7113C21.0651 33.6739 21.1212 33.6365 21.168 33.5991C21.2147 33.5617 21.2615 33.5243 21.3176 33.4776C21.4391 33.3841 21.5513 33.2813 21.6635 33.1784C21.7009 33.141 21.7383 33.113 21.7664 33.0756C21.9533 32.8979 22.131 32.7016 22.2993 32.5053C22.3367 32.4679 22.3647 32.4305 22.3928 32.3931C22.4395 32.337 22.4863 32.2809 22.533 32.2154C22.5985 32.1313 22.6546 32.0565 22.7106 31.9723C22.748 31.9162 22.7948 31.8601 22.8322 31.7947C22.8415 31.776 22.8602 31.7573 22.8696 31.7386C22.8976 31.7012 22.9257 31.6545 22.9537 31.6171C22.9724 31.5984 22.9818 31.5703 22.9911 31.5516C23.0285 31.4955 23.0659 31.4301 23.1033 31.374C23.122 31.3459 23.1407 31.3085 23.1594 31.2805C23.1968 31.215 23.2342 31.1496 23.2716 31.0841C23.309 31.0093 23.3464 30.9439 23.3838 30.8691C23.3838 30.8598 23.3932 30.8598 23.3932 30.8504C23.468 30.6915 23.5334 30.5419 23.5988 30.3736C23.6082 30.3455 23.6175 30.3175 23.6269 30.2894C23.683 30.1585 23.7297 30.0183 23.7765 29.8874C23.9261 29.4293 24.0289 28.9618 24.0944 28.4756C24.1037 28.4195 24.1037 28.3635 24.1131 28.3167C24.1224 28.2793 24.1224 28.2326 24.1224 28.1858C24.1411 27.9521 24.1505 27.7277 24.1505 27.4846V5.03661C24.1505 3.85858 24.6273 2.79274 25.4033 2.01674C25.8053 1.60537 26.3008 1.28748 26.8431 1.07245C26.9459 1.03505 27.0488 0.997652 27.1516 0.960254C27.2358 0.932206 27.3199 0.913507 27.4041 0.894808C27.5163 0.86676 27.6191 0.848061 27.7313 0.829362C27.8902 0.782615 28.1146 0.763916 28.3484 0.763916C28.4045 0.763916 28.4512 0.763916 28.5073 0.763916C28.5447 0.763916 28.5727 0.763916 28.6101 0.773265C28.6475 0.773265 28.6849 0.782615 28.7223 0.782615C28.7504 0.782615 28.7878 0.791964 28.8158 0.791964C28.8532 0.791964 28.8906 0.801314 28.928 0.810663C28.9654 0.820013 29.0122 0.820013 29.0496 0.829362C29.0683 0.829362 29.087 0.838712 29.115 0.838712C29.1711 0.848061 29.2272 0.85741 29.2833 0.876109C31.2093 1.30618 32.621 3.08258 32.621 5.1301Z" fill="#2E2660"/>
<path d="M32.621 5.1301V27.2696C32.621 27.2789 32.621 27.2883 32.621 27.2976C32.621 27.3724 32.621 27.4472 32.621 27.5127C32.621 28.7094 32.4901 29.8781 32.2471 31.0093C32.219 31.1589 32.1816 31.2992 32.1442 31.4488C32.1068 31.5984 32.0694 31.7386 32.032 31.8882C32.004 31.991 31.9759 32.0939 31.9385 32.1967C31.9198 32.2528 31.9011 32.3089 31.8824 32.365C31.8544 32.4585 31.8263 32.5613 31.7889 32.6548C31.7796 32.7016 31.7609 32.739 31.7422 32.7857C31.7048 32.9073 31.658 33.0382 31.6113 33.1597C31.5552 33.328 31.4898 33.4869 31.4243 33.6459C31.3776 33.7581 31.3308 33.8703 31.2841 33.9825C31.228 34.104 31.1719 34.2349 31.1158 34.3564C31.1064 34.3658 31.1064 34.3751 31.1064 34.3845C31.0971 34.3938 31.0971 34.4032 31.0877 34.4125C30.6016 35.4597 30.0032 36.4414 29.3113 37.3483C29.1804 37.5259 29.0496 37.6942 28.9093 37.8625C28.6288 38.2084 28.3296 38.545 28.0118 38.8629C27.8622 39.0125 27.7126 39.162 27.563 39.3116C27.5536 39.321 27.5443 39.3303 27.5349 39.3397C27.4882 39.3864 27.4321 39.4332 27.376 39.4799C27.3667 39.4893 27.3667 39.4893 27.3667 39.4893C27.2919 39.5641 27.2077 39.6295 27.1329 39.695C27.1236 39.7043 27.1142 39.7137 27.1049 39.723C27.0301 39.7885 26.9646 39.8539 26.8898 39.91C26.5907 40.1718 26.2821 40.4149 25.9642 40.6486C25.8147 40.7608 25.6744 40.8636 25.5248 40.9665C25.45 41.0132 25.3846 41.06 25.3098 41.1067C25.1321 41.2283 24.9452 41.3405 24.7582 41.4527C24.7021 41.4901 24.646 41.5181 24.5899 41.5555C24.5057 41.6023 24.4216 41.6584 24.3374 41.7051C24.2626 41.7518 24.1785 41.7986 24.0944 41.836C24.0663 41.8547 24.0476 41.864 24.0196 41.8734C23.9354 41.9201 23.8606 41.9575 23.7765 42.0043C23.7671 42.0136 23.7578 42.0136 23.7391 42.023C23.6456 42.0697 23.5521 42.1165 23.4586 42.1632C23.0379 42.3689 22.6078 42.5559 22.1777 42.7242C22.1123 42.7522 22.0375 42.7803 21.972 42.799C21.8785 42.8364 21.785 42.8644 21.6915 42.9018C21.6074 42.9299 21.5139 42.9673 21.4298 42.9953C21.4017 43.0047 21.3737 43.014 21.3363 43.0234C21.2521 43.0514 21.168 43.0795 21.0745 43.1075C21.0371 43.1169 20.9997 43.1356 20.9623 43.1449C20.8875 43.1636 20.8221 43.1823 20.7566 43.2104C20.5977 43.2571 20.4294 43.3039 20.2704 43.3412C20.1956 43.3599 20.1115 43.3786 20.0273 43.3973C19.9806 43.4067 19.9245 43.4254 19.8778 43.4347C19.6814 43.4815 19.4851 43.5189 19.2887 43.5563C19.2139 43.5656 19.1485 43.5843 19.0831 43.5937C18.9896 43.6124 18.8867 43.6311 18.7932 43.6404C18.7371 43.6498 18.681 43.6591 18.6156 43.6685C18.5408 43.6778 18.466 43.6872 18.3912 43.6965C18.279 43.7059 18.1668 43.7246 18.0546 43.7339C17.9705 43.7433 17.8957 43.7526 17.8115 43.762C17.7835 43.762 17.7461 43.7713 17.718 43.7713C17.6245 43.762 17.5404 43.7713 17.4563 43.7713C17.3441 43.7807 17.2412 43.79 17.129 43.79C16.9981 43.7994 16.8579 43.7994 16.727 43.8087C16.5961 43.8087 16.4559 43.8181 16.325 43.8181H16.3156C16.2689 43.8181 16.2221 43.8181 16.1754 43.8181C16.1286 43.8181 16.0819 43.8181 16.0351 43.8181C15.979 43.8181 15.9323 43.8181 15.8762 43.8181C15.8295 43.8181 15.7827 43.8181 15.7453 43.8087C15.6612 43.8087 15.5677 43.7994 15.4835 43.7994C15.3994 43.7994 15.3152 43.79 15.2404 43.7807C15.1656 43.7807 15.1002 43.7713 15.0254 43.762C14.8945 43.7526 14.7543 43.7339 14.6234 43.7246C14.586 43.7246 14.5486 43.7152 14.5112 43.7152C12.5852 43.2945 11.1454 41.5742 11.1454 39.5267C11.1454 37.2361 12.9498 35.3568 15.2124 35.2446C15.2872 35.2446 15.3526 35.2353 15.4274 35.2353C15.4555 35.2353 15.4929 35.2353 15.5209 35.2353H15.5303C15.577 35.2446 15.6238 35.2446 15.6612 35.2446C15.6986 35.2446 15.7453 35.254 15.7827 35.254C15.7921 35.254 15.8108 35.254 15.8201 35.254C15.8669 35.254 15.9136 35.2633 15.951 35.2633C15.951 35.2633 15.951 35.2633 15.9603 35.2633C16.0164 35.2633 16.0632 35.2727 16.1193 35.2727C16.1847 35.2727 16.2502 35.2727 16.325 35.2727C16.4559 35.2727 16.5961 35.2727 16.727 35.2633C16.7831 35.2633 16.8392 35.254 16.8953 35.254C16.9607 35.2446 17.0168 35.2446 17.0823 35.2353C17.1477 35.2259 17.2038 35.2259 17.2693 35.2166C17.316 35.2072 17.3628 35.2072 17.4189 35.1979C17.6245 35.1698 17.8302 35.1324 18.0359 35.0857C18.0733 35.0763 18.1107 35.067 18.1481 35.0576C18.1855 35.0483 18.2323 35.039 18.2697 35.0296C18.3351 35.0109 18.3912 35.0015 18.4566 34.9828C18.5221 34.9642 18.5782 34.9455 18.6436 34.9268C18.6997 34.9081 18.7558 34.8894 18.8119 34.8707C18.8774 34.852 18.9428 34.8239 18.9989 34.8052C19.055 34.7865 19.1205 34.7678 19.1766 34.7398C19.2326 34.7117 19.2981 34.693 19.3542 34.665C19.4103 34.6369 19.4664 34.6182 19.5318 34.5902C19.5786 34.5715 19.6253 34.5434 19.6814 34.5247C19.9152 34.4125 20.1489 34.291 20.3639 34.1508C20.5135 34.0666 20.6538 33.9731 20.794 33.8703C20.8127 33.8516 20.8407 33.8422 20.8594 33.8235C20.8968 33.7955 20.9436 33.7674 20.981 33.73C21.0277 33.6926 21.0838 33.6552 21.1306 33.6178C21.1773 33.5804 21.2241 33.543 21.2802 33.4963C21.4017 33.4028 21.5139 33.3 21.6261 33.1971C21.6635 33.1597 21.7009 33.1317 21.7289 33.0943C21.9159 32.9166 22.0936 32.7203 22.2619 32.524C22.2993 32.4866 22.3273 32.4492 22.3554 32.4118C22.4021 32.3557 22.4489 32.2996 22.4956 32.2341C22.561 32.15 22.6171 32.0752 22.6732 31.991C22.7106 31.9349 22.7574 31.8788 22.7948 31.8134C22.8041 31.7947 22.8228 31.776 22.8322 31.7573C22.8602 31.7199 22.8883 31.6732 22.9163 31.6358C22.935 31.6171 22.9444 31.589 22.9537 31.5703C22.9911 31.5142 23.0285 31.4488 23.0659 31.3927C23.0846 31.3646 23.1033 31.3272 23.122 31.2992C23.1594 31.2337 23.1968 31.1683 23.2342 31.1028C23.2716 31.028 23.309 30.9626 23.3464 30.8878C23.3464 30.8785 23.3557 30.8785 23.3557 30.8691C23.4305 30.7102 23.496 30.5606 23.5614 30.3923C23.5708 30.3642 23.5801 30.3362 23.5895 30.3081C23.6456 30.1772 23.6923 30.037 23.7391 29.9061C23.8887 29.448 23.9915 28.9805 24.057 28.4943C24.0663 28.4382 24.0663 28.3822 24.0757 28.3354C24.085 28.298 24.085 28.2513 24.085 28.2045C24.1037 27.9708 24.1131 27.7464 24.1131 27.5033V5.03661C24.1131 3.85858 24.5899 2.79274 25.3659 2.01674C25.7679 1.60537 26.2634 1.28748 26.8057 1.07245C26.9085 1.03505 27.0114 0.997652 27.1142 0.960254C27.1984 0.932206 27.2825 0.913507 27.3667 0.894808C27.4788 0.86676 27.5817 0.848061 27.6939 0.829362C27.8902 0.782615 28.1146 0.763916 28.3483 0.763916C28.4044 0.763916 28.4512 0.763916 28.5073 0.763916C28.5447 0.763916 28.5727 0.763916 28.6101 0.773265C28.6475 0.773265 28.6849 0.782615 28.7223 0.782615C28.7504 0.782615 28.7878 0.791964 28.8158 0.791964C28.8532 0.791964 28.8906 0.801314 28.928 0.810663C28.9654 0.820013 29.0122 0.820013 29.0496 0.829362C29.0683 0.829362 29.087 0.838712 29.115 0.838712C29.1711 0.848061 29.2272 0.85741 29.2833 0.876109C31.2093 1.30618 32.621 3.08258 32.621 5.1301Z" fill="#872069"/>
<path d="M32.621 5.1301V27.2696C32.621 27.2789 32.621 27.2883 32.621 27.2976C32.621 27.3724 32.621 27.4472 32.621 27.5127C32.621 28.7094 32.4901 29.8781 32.2471 31.0093C32.219 31.1589 32.1816 31.2992 32.1442 31.4488C32.1068 31.5984 32.0694 31.7386 32.032 31.8882C32.004 31.991 31.9759 32.0939 31.9385 32.1967C31.9198 32.2528 31.9011 32.3089 31.8824 32.365C31.8544 32.4585 31.8263 32.5613 31.7889 32.6548C31.7796 32.7016 31.7609 32.739 31.7422 32.7857C31.7048 32.9073 31.658 33.0382 31.6113 33.1597C31.5552 33.328 31.4898 33.4869 31.4243 33.6459C31.3776 33.7581 31.3308 33.8703 31.2841 33.9825C31.228 34.104 31.1719 34.2349 31.1158 34.3564C31.1064 34.3658 31.1064 34.3751 31.1064 34.3845H31.0971C31.0971 34.3938 31.0971 34.4032 31.0877 34.4125C30.6016 35.4597 30.0032 36.4414 29.3113 37.3483C28.554 37.9092 27.6191 38.2458 26.6094 38.2458C24.3374 38.2458 22.4489 36.5723 22.131 34.3845C22.1029 34.1694 22.0842 33.9451 22.0842 33.7207C22.0842 33.3186 22.1403 32.9166 22.2432 32.5426C22.2712 32.5053 22.3086 32.4679 22.3367 32.4305C22.3834 32.3744 22.4302 32.3183 22.4769 32.2528C22.5424 32.1687 22.5984 32.0939 22.6545 32.0097C22.6919 31.9536 22.7387 31.8975 22.7761 31.8321C22.7761 31.8227 22.7854 31.8227 22.7854 31.8134C22.7948 31.804 22.8041 31.7853 22.8135 31.776C22.8415 31.7386 22.8696 31.6919 22.8976 31.6545C22.9163 31.6358 22.9257 31.6077 22.935 31.589C22.9724 31.5329 23.0098 31.4675 23.0472 31.4114C23.0659 31.3833 23.0846 31.3459 23.1033 31.3179C23.1407 31.2524 23.1781 31.187 23.2155 31.1215C23.2529 31.0467 23.2903 30.9813 23.3277 30.9065C23.3277 30.8971 23.3371 30.8971 23.3371 30.8878C23.4118 30.7289 23.4773 30.5793 23.5427 30.411C23.5521 30.3829 23.5614 30.3549 23.5708 30.3268C23.6269 30.1959 23.6736 30.0557 23.7204 29.9248C23.87 29.4667 23.9728 28.9992 24.0383 28.513C24.0476 28.4569 24.0476 28.4008 24.057 28.3541C24.0663 28.3167 24.0663 28.27 24.0663 28.2232C24.085 27.9895 24.0944 27.7651 24.0944 27.522V5.03661C24.0944 3.85858 24.5712 2.79274 25.3472 2.01674C25.7492 1.60537 26.2447 1.28748 26.787 1.07245C26.8898 1.03505 26.9927 0.997652 27.0955 0.960254C27.1797 0.932206 27.2638 0.913507 27.348 0.894808C27.4602 0.86676 27.563 0.848061 27.6752 0.829362C27.8902 0.782615 28.1146 0.763916 28.3483 0.763916C28.4044 0.763916 28.4512 0.763916 28.5073 0.763916C28.5447 0.763916 28.5727 0.763916 28.6101 0.773265C28.6475 0.773265 28.6849 0.782615 28.7223 0.782615C28.7504 0.782615 28.7878 0.791964 28.8158 0.791964C28.8532 0.791964 28.8906 0.801314 28.928 0.810663C28.9654 0.820013 29.0122 0.820013 29.0496 0.829362C29.0683 0.829362 29.087 0.838712 29.115 0.838712C29.1711 0.848061 29.2272 0.85741 29.2833 0.876109C31.2093 1.30618 32.621 3.08258 32.621 5.1301Z" fill="#D9167A"/>
<path d="M32.621 5.1301V20.8278C32.621 23.1839 30.7138 25.0912 28.3577 25.0912C26.0016 25.0912 24.0944 23.1839 24.0944 20.8278V5.03661C24.0944 3.85858 24.5712 2.79274 25.3472 2.01674C25.7492 1.60537 26.2447 1.28748 26.787 1.07245C26.8898 1.03505 26.9927 0.997652 27.0955 0.960254C27.1797 0.932206 27.2638 0.913507 27.348 0.894808C27.4602 0.86676 27.5724 0.848061 27.6752 0.829362C27.8902 0.782615 28.1146 0.763916 28.3484 0.763916H28.4231C28.4512 0.763916 28.4792 0.763916 28.5073 0.763916C28.5447 0.763916 28.5727 0.763916 28.6101 0.773265C28.6475 0.773265 28.6849 0.782615 28.7223 0.782615C28.7504 0.782615 28.7878 0.791964 28.8158 0.791964C28.8532 0.791964 28.8906 0.801314 28.928 0.810663C28.9654 0.820013 29.0122 0.820013 29.0496 0.829362C29.0683 0.829362 29.087 0.838712 29.115 0.838712C29.1711 0.848061 29.2272 0.85741 29.2833 0.876109C31.2093 1.30618 32.621 3.08258 32.621 5.1301Z" fill="#E3141B"/>
<path d="M61.8193 16.9384C61.5014 16.8542 61.1649 16.8075 60.8283 16.8075C60.4824 16.8075 60.1551 16.8542 59.8372 16.9384C58.3226 17.3404 57.1726 18.6306 56.9763 20.2107C56.9576 20.3696 56.9483 20.5286 56.9483 20.6875C56.9483 20.8465 56.9576 21.0054 56.9763 21.155V28.1016H56.9483V28.7841C56.9483 28.8683 56.9576 28.9524 56.9763 29.0459C56.9763 29.0646 56.9857 29.074 56.9857 29.0833V31.6357C56.9857 32.8698 56.5649 33.8889 55.6861 34.7771C54.8166 35.656 53.7975 36.086 52.5727 36.086H50.0203C48.7956 36.086 47.7671 35.656 46.8976 34.7771C46.0281 33.8983 45.598 32.8698 45.598 31.6357V20.6969C45.598 18.9018 44.3733 17.3872 42.7091 16.9477C42.3912 16.8636 42.0546 16.8168 41.718 16.8168C41.3721 16.8168 41.0449 16.8636 40.727 16.9477C39.0628 17.3872 37.838 18.9018 37.838 20.6969V32.9259C37.838 35.9177 38.9132 38.5075 41.0262 40.6205C43.1391 42.7335 45.7289 43.8087 48.7208 43.8087H53.8162C56.8267 43.8087 59.5474 42.5932 61.5201 40.6205C63.4929 38.6478 64.7083 35.9271 64.7083 32.9259V20.6969C64.7083 18.8924 63.4835 17.3778 61.8193 16.9384Z" fill="#E40F18"/>
<path d="M203.22 16.9384C202.902 16.8542 202.566 16.8075 202.229 16.8075C201.883 16.8075 201.556 16.8542 201.238 16.9384C199.724 17.3404 198.574 18.6306 198.377 20.2107C198.358 20.3696 198.349 20.5286 198.349 20.6875C198.349 20.8465 198.358 21.0054 198.377 21.155V28.1016H198.349V28.7841C198.349 28.8683 198.358 28.9524 198.377 29.0459C198.377 29.0646 198.387 29.074 198.387 29.0833V31.6357C198.387 32.8698 197.966 33.8889 197.087 34.7771C196.217 35.656 195.198 36.086 193.974 36.086H191.421C190.196 36.086 189.168 35.656 188.298 34.7771C187.429 33.8983 186.999 32.8698 186.999 31.6357V20.6969C186.999 18.9018 185.774 17.3872 184.11 16.9477C183.792 16.8636 183.455 16.8168 183.119 16.8168C182.773 16.8168 182.446 16.8636 182.128 16.9477C180.464 17.3872 179.239 18.9018 179.239 20.6969V32.9259C179.239 35.9177 180.314 38.5075 182.427 40.6205C184.54 42.7335 187.13 43.8087 190.122 43.8087H195.217C198.228 43.8087 200.948 42.5932 202.921 40.6205C204.894 38.6478 206.109 35.9271 206.109 32.9259V20.6969C206.109 18.8924 204.884 17.3778 203.22 16.9384Z" fill="#E40F18"/>
<path d="M173.947 39.087C173.769 37.32 173.265 35.6465 172.451 34.0851C171.535 32.3274 170.301 30.8315 168.796 29.6161C169.852 28.4567 170.703 27.1291 171.329 25.6613C171.918 24.2869 172.274 22.819 172.395 21.3044C172.423 21.1268 172.432 20.9491 172.432 20.7715C172.432 20.7341 172.432 20.6967 172.432 20.6593C172.404 19.5467 171.909 18.5463 171.133 17.8451C171.058 17.7797 170.974 17.7049 170.89 17.6488C170.478 17.3309 170.002 17.0878 169.487 16.9569C169.478 16.9569 169.478 16.9569 169.478 16.9569C169.16 16.8728 168.824 16.826 168.478 16.826C168.132 16.826 167.795 16.8728 167.477 16.9569C167.468 16.9569 167.468 16.9569 167.468 16.9569C167.122 17.0504 166.795 17.1907 166.486 17.3683C166.411 17.415 166.337 17.4618 166.262 17.5085C166.112 17.6114 165.981 17.7142 165.85 17.8358C165.785 17.8919 165.72 17.9573 165.663 18.0134C165.458 18.2285 165.271 18.4622 165.112 18.7146C165.056 18.7988 165.009 18.8829 164.962 18.9764C164.916 19.0606 164.878 19.1447 164.841 19.2288C164.813 19.2943 164.785 19.3597 164.766 19.4252C164.719 19.5654 164.672 19.7057 164.635 19.8459C164.598 19.9955 164.57 20.1451 164.551 20.304C164.542 20.3695 164.532 20.4443 164.532 20.5097C164.252 21.9308 163.569 23.1837 162.466 24.2869C160.979 25.7921 159.222 26.5121 157.099 26.5121H154.912V8.06561C154.912 7.84123 154.893 7.61684 154.856 7.4018C154.799 7.08392 154.706 6.77539 154.575 6.48556C154.444 6.19573 154.285 5.92459 154.089 5.68151C153.958 5.51322 153.818 5.36363 153.668 5.22338C153.519 5.08314 153.35 4.95225 153.173 4.84006C152.827 4.60632 152.434 4.42868 152.023 4.32584C151.705 4.24169 151.368 4.19495 151.032 4.19495C150.789 4.19495 150.545 4.22299 150.312 4.26039C150.293 4.26039 150.274 4.26974 150.256 4.26974C150.181 4.28844 150.115 4.29779 150.041 4.31649C149.76 4.39128 149.489 4.49413 149.237 4.63437C148.984 4.76526 148.741 4.9242 148.526 5.11119C148.096 5.47582 147.741 5.94329 147.498 6.46686C147.339 6.81279 147.226 7.19612 147.18 7.58879C147.17 7.66359 147.161 7.74773 147.161 7.82253C147.152 7.90667 147.152 7.98147 147.152 8.06561V39.9285C147.152 40.0126 147.152 40.0968 147.161 40.1809C147.17 40.2557 147.17 40.3212 147.18 40.396C147.208 40.6017 147.245 40.8073 147.301 41.0037C147.357 41.2 147.432 41.387 147.516 41.574C147.591 41.7329 147.675 41.8919 147.769 42.0415C147.956 42.3313 148.18 42.5931 148.442 42.8268C149.124 43.4439 150.031 43.8085 151.022 43.8085C152.425 43.8085 153.659 43.0606 154.341 41.9386C154.697 41.3496 154.902 40.6671 154.902 39.9285V34.2534H158.67C160.783 34.2534 162.541 34.9826 164.046 36.4879C165.159 37.6005 165.841 38.8533 166.131 40.2838C166.131 40.3025 166.131 40.3212 166.14 40.3399C166.159 40.4801 166.178 40.611 166.215 40.7419C166.617 42.4996 168.188 43.8085 170.067 43.8085C171.638 43.8085 173.003 42.8829 173.639 41.5553C173.732 41.3683 173.797 41.172 173.863 40.9663C173.947 40.6858 174.003 40.4053 174.013 40.1061C174.022 40.022 174.022 39.9472 174.022 39.863C174.022 39.6013 173.994 39.3395 173.947 39.087Z" fill="#E40F18"/>
<path d="M109.866 7.85058C109.866 9.87005 108.127 11.5062 105.986 11.5062C104.004 11.5062 102.368 10.1038 102.134 8.29C102.115 8.14976 102.106 8.00017 102.106 7.85058C102.106 7.70098 102.115 7.54204 102.134 7.4018C102.33 5.90589 103.48 4.69982 104.995 4.31649C105.313 4.24169 105.65 4.19495 105.986 4.19495C106.323 4.19495 106.659 4.23234 106.977 4.31649C108.641 4.72786 109.866 6.15833 109.866 7.85058Z" fill="#E40F18"/>
<path d="M109.866 20.6967C109.866 20.2479 109.791 19.8178 109.651 19.4158C109.614 19.313 109.576 19.2195 109.529 19.1166C109.268 18.5369 108.875 18.0321 108.38 17.6487C108.211 17.5179 108.043 17.4057 107.856 17.3028C107.669 17.2 107.482 17.1158 107.276 17.041C107.173 17.0036 107.071 16.9756 106.968 16.9475C106.65 16.8634 106.313 16.8167 105.977 16.8167C105.64 16.8167 105.304 16.8634 104.986 16.9475C104.892 16.9756 104.799 17.0036 104.705 17.0317C104.154 17.2187 103.667 17.5366 103.256 17.9292C103.191 17.9947 103.125 18.0601 103.06 18.1349C102.555 18.7052 102.218 19.4251 102.125 20.2198C102.115 20.2946 102.106 20.3788 102.106 20.4536C102.097 20.5377 102.097 20.6125 102.097 20.6967V39.9378C102.097 40.0967 102.106 40.2557 102.125 40.4053C102.2 41.0036 102.405 41.5646 102.723 42.0508C102.91 42.3406 103.134 42.6024 103.396 42.8361C104.079 43.4532 104.986 43.8178 105.977 43.8178C107.379 43.8178 108.613 43.0699 109.296 41.9479C109.651 41.3589 109.857 40.6764 109.857 39.9378V20.6967H109.866Z" fill="#E40F18"/>
<path d="M93.6541 20.1919C91.5505 18.0977 88.9607 17.0038 85.9596 16.9477L81.986 16.8635H81.6027C80.032 16.8635 78.7324 17.144 77.7133 17.705C77.704 17.2843 77.3581 16.9477 76.9373 16.9477H70.72C70.2899 16.9477 69.944 17.2936 69.944 17.7237V39.9473C69.944 40.1062 69.9533 40.2652 69.972 40.4148C70.2058 42.3781 71.898 43.8834 73.9362 43.8273C76.0491 43.7712 77.704 41.9761 77.704 39.8538V29.1674C77.704 27.9426 78.1808 26.7646 79.0597 25.9138C79.9198 25.0817 80.9202 24.6797 82.1169 24.6797H84.6974C85.8941 24.6797 86.9038 25.0817 87.7546 25.9138C88.6335 26.7646 89.1103 27.952 89.1103 29.1674V39.2554V40.6111C89.4282 42.4342 91.0082 43.8179 92.9249 43.8179C95.0659 43.8273 96.8142 41.9855 96.8142 39.8444V27.8304C96.8329 24.8573 95.7578 22.2862 93.6541 20.1919Z" fill="#E40F18"/>
<path d="M196.189 5.68148C195.731 5.22336 195.17 4.98962 194.525 4.98962H193.422C192.777 4.98962 192.216 5.22336 191.758 5.68148C191.3 6.1396 191.066 6.70057 191.066 7.34568V8.44892C191.066 9.09403 191.3 9.65499 191.758 10.1131C192.216 10.5712 192.777 10.805 193.422 10.805H194.525C195.17 10.805 195.731 10.5712 196.189 10.1131C196.648 9.65499 196.881 9.09403 196.881 8.44892V7.33633C196.881 6.69122 196.648 6.1396 196.189 5.68148ZM195.208 7.60747V8.15908C195.208 8.42087 195.114 8.64525 194.927 8.83224C194.74 9.01923 194.516 9.11273 194.254 9.11273H193.712C193.45 9.11273 193.226 9.01923 193.039 8.83224C192.852 8.64525 192.758 8.42087 192.758 8.15908V7.60747C192.758 7.34568 192.852 7.1213 193.039 6.93431C193.226 6.74732 193.45 6.65382 193.712 6.65382H194.254C194.516 6.65382 194.74 6.74732 194.927 6.93431C195.114 7.13064 195.208 7.34568 195.208 7.60747Z" fill="#E40F18"/>
<path d="M205.604 5.59729C205.258 5.18591 204.847 4.98022 204.361 4.98022H203.557C203.173 4.98022 202.827 5.11112 202.528 5.3729C202.229 5.11112 201.893 4.98022 201.537 4.98022L201.023 4.98957C200.864 4.99892 200.714 5.03632 200.584 5.10177C200.499 5.14851 200.434 5.18591 200.387 5.23266C200.387 5.09242 200.266 4.98022 200.125 4.98022H199.2C199.06 4.98022 198.938 5.09242 198.938 5.24201V9.94477C198.938 9.98217 198.938 10.0102 198.947 10.0476C198.994 10.4309 199.293 10.7301 199.677 10.7769C199.714 10.7769 199.742 10.7862 199.78 10.7862C199.817 10.7862 199.845 10.7862 199.882 10.7769C200.294 10.7301 200.621 10.3748 200.621 9.94477V7.32693C200.621 7.13059 200.677 6.97165 200.789 6.83141C200.892 6.70052 201.014 6.64442 201.154 6.64442C201.294 6.64442 201.425 6.70987 201.528 6.83141C201.64 6.97165 201.696 7.13059 201.696 7.31758V9.93543C201.696 9.97282 201.696 10.0009 201.706 10.0383C201.752 10.4216 202.051 10.7208 202.435 10.7675C202.472 10.7675 202.5 10.7769 202.538 10.7769C202.575 10.7769 202.603 10.7769 202.64 10.7675C203.052 10.7208 203.379 10.3655 203.379 9.93543V7.31758C203.379 7.12125 203.435 6.9623 203.547 6.83141C203.65 6.70052 203.772 6.64442 203.921 6.64442C204.062 6.64442 204.183 6.70987 204.286 6.83141C204.398 6.97165 204.454 7.13059 204.454 7.32693V9.94477C204.454 9.98217 204.454 10.0102 204.464 10.0476C204.51 10.4309 204.81 10.7301 205.193 10.7769C205.23 10.7769 205.258 10.7862 205.296 10.7862C205.333 10.7862 205.361 10.7862 205.399 10.7769C205.81 10.7301 206.137 10.3748 206.137 9.94477V7.04645C206.109 6.49483 205.941 5.99931 205.604 5.59729Z" fill="#E40F18"/>
<path d="M188.831 8.84154C188.803 8.79479 188.766 8.74805 188.719 8.71065C188.682 8.67325 188.635 8.63585 188.588 8.59846C188.57 8.58911 188.56 8.57976 188.542 8.57041C188.495 8.54236 188.439 8.51431 188.383 8.49561C188.364 8.48626 188.345 8.48626 188.327 8.47691C188.252 8.45821 188.177 8.44887 188.093 8.44887C188.018 8.44887 187.934 8.45821 187.859 8.47691C187.737 8.50496 187.616 8.57041 187.522 8.6452C187.513 8.65455 187.494 8.6639 187.485 8.6826C187.429 8.72935 187.382 8.79479 187.335 8.86024C187.298 8.88829 187.261 8.92569 187.223 8.94439C187.064 9.05658 186.887 9.11268 186.69 9.11268H186.148C185.886 9.11268 185.662 9.01918 185.475 8.83219C185.288 8.6452 185.194 8.42082 185.194 8.15903V7.60742C185.194 7.34563 185.288 7.12125 185.475 6.93426C185.662 6.74727 185.886 6.65377 186.148 6.65377H186.69C186.887 6.65377 187.064 6.70987 187.223 6.82206C187.289 6.85946 187.335 6.90621 187.382 6.9623C187.401 6.99035 187.42 7.00905 187.438 7.02775C187.597 7.20539 187.831 7.30823 188.093 7.30823C188.588 7.30823 188.99 6.90621 188.99 6.41069C188.99 6.2237 188.934 6.04606 188.831 5.89647C188.803 5.84972 188.766 5.80297 188.719 5.76558C188.672 5.70948 188.626 5.66273 188.57 5.61599C188.121 5.19526 187.579 4.98022 186.962 4.98022H185.858C185.213 4.98022 184.652 5.21396 184.194 5.67208C183.736 6.13021 183.502 6.69117 183.502 7.33628V8.43952C183.502 9.08463 183.736 9.64559 184.194 10.0944C184.652 10.5525 185.213 10.7862 185.858 10.7862H186.962C187.579 10.7862 188.121 10.5712 188.57 10.1505C188.616 10.1037 188.663 10.0663 188.7 10.0196C188.757 9.97282 188.794 9.91673 188.841 9.86063C188.85 9.84193 188.859 9.82323 188.878 9.80453C188.934 9.71104 188.972 9.6082 188.981 9.496C188.99 9.44925 188.99 9.40251 188.99 9.35576C188.99 9.18747 188.944 9.02853 188.869 8.89764C188.85 8.87894 188.841 8.86024 188.831 8.84154Z" fill="#E40F18"/>
<path d="M181.679 9.5615C181.679 10.2347 181.127 10.7863 180.454 10.7863C179.828 10.7863 179.314 10.3188 179.239 9.71109C179.229 9.66434 179.229 9.61759 179.229 9.5615C179.229 9.51475 179.229 9.45865 179.239 9.41191C179.304 8.91639 179.66 8.50501 180.136 8.38347C180.239 8.35542 180.342 8.34607 180.445 8.34607C180.557 8.34607 180.66 8.36477 180.753 8.38347C181.286 8.52371 181.679 9.00053 181.679 9.5615Z" fill="#E40F18"/>
</svg>
