<svg width="152" height="56" viewBox="0 0 152 56" fill="none" xmlns="http://www.w3.org/2000/svg">
<path d="M123.215 0.733032V21.0267L116.838 0.733032H110.534V37.9496H116.838V19.7183L122.532 37.9496H129.514V0.733032H123.215Z" fill="black"/>
<path d="M15.3697 7.03708V0.733032H0V37.9496H6.30405V21.9946H12.1481V15.6906H6.30405V7.03708H15.3697Z" fill="black"/>
<path d="M25.7508 29.728V8.9588C25.7508 8.30995 26.0085 7.68767 26.4673 7.22886C26.9261 6.77006 27.5484 6.5123 28.1973 6.5123C28.8389 6.5123 29.4543 6.767 29.9083 7.22045C30.3623 7.6739 30.6177 8.28901 30.6184 8.93066V29.728C30.6263 30.0541 30.5688 30.3785 30.4494 30.6821C30.33 30.9857 30.1511 31.2623 29.9232 31.4957C29.6953 31.7291 29.423 31.9146 29.1224 32.0413C28.8218 32.1679 28.4989 32.2331 28.1726 32.2331C27.8464 32.2331 27.5235 32.1679 27.2229 32.0413C26.9222 31.9146 26.65 31.7291 26.4221 31.4957C26.1942 31.2623 26.0153 30.9857 25.8959 30.6821C25.7765 30.3785 25.719 30.0541 25.7269 29.728H25.7508ZM19.4467 8.9588V29.728C19.4467 30.8771 19.6731 32.015 20.1128 33.0767C20.5526 34.1383 21.1971 35.103 22.0097 35.9155C22.8223 36.7281 23.7869 37.3727 24.8486 37.8124C25.9102 38.2522 27.0481 38.4785 28.1973 38.4785C29.3464 38.4785 30.4843 38.2522 31.546 37.8124C32.6076 37.3727 33.5723 36.7281 34.3848 35.9155C35.1974 35.103 35.842 34.1383 36.2817 33.0767C36.7215 32.015 36.9478 30.8771 36.9478 29.728V8.95458C36.9467 6.63428 36.0241 4.40941 34.3828 2.76924C32.7416 1.12906 30.5162 0.207879 28.1959 0.208252C25.8751 0.208252 23.6493 1.13018 22.0083 2.77123C20.3672 4.41227 19.4453 6.63801 19.4453 8.9588" fill="black"/>
<path d="M81.8696 0.733032H64.4009V7.03708H69.9832V37.9496H76.2873V7.03708H81.8696V0.733032Z" fill="black"/>
<path d="M98.2593 0.733032V29.7238C98.2671 30.0499 98.2096 30.3743 98.0902 30.6779C97.9708 30.9815 97.7919 31.2581 97.5641 31.4915C97.3362 31.7249 97.0639 31.9104 96.7633 32.0371C96.4626 32.1637 96.1397 32.2289 95.8135 32.2289C95.4873 32.2289 95.1644 32.1637 94.8637 32.0371C94.5631 31.9104 94.2908 31.7249 94.063 31.4915C93.8351 31.2581 93.6562 30.9815 93.5368 30.6779C93.4174 30.3743 93.3599 30.0499 93.3677 29.7238V0.733032H87.0623V29.7238C87.0623 32.0446 87.9842 34.2703 89.6252 35.9114C91.2663 37.5524 93.492 38.4743 95.8128 38.4743C98.1336 38.4743 100.359 37.5524 102 35.9114C103.641 34.2703 104.563 32.0446 104.563 29.7238V0.733032H98.2593Z" fill="black"/>
<path d="M151.059 7.03708V0.733032H135.69V37.9496H151.059V31.6455H141.994V21.9946H147.839V15.6906H141.991V7.03708H151.059Z" fill="black"/>
<path d="M61.5099 37.9496H54.9962L50.3339 20.2797C51.48 20.0498 52.5091 19.425 53.2416 18.514C53.9741 17.6031 54.3635 16.4639 54.342 15.2952V9.49061C54.342 8.84848 54.0869 8.23264 53.6329 7.77858C53.1788 7.32453 52.563 7.06944 51.9209 7.06944H49.4983V37.9496H43.1858V0.733032H51.9082C54.1575 0.736933 56.3189 1.60728 57.9432 3.16324C59.5676 4.71921 60.53 6.84117 60.6306 9.08825V15.1785C60.7422 16.6884 60.4916 18.2032 59.8997 19.5967C59.3077 20.9903 58.3916 22.2223 57.2275 23.1904L61.5099 37.9496Z" fill="black"/>
<path d="M70.0603 55.3762V43.9189H72.1255V55.3762H70.0603ZM76.7498 55.3762V43.9189H78.2073L80.9929 50.4537V43.9189H82.7191V55.3762H81.3319L78.5323 48.5306V55.3762H76.7498ZM87.3152 55.3762V43.9189H90.0163C90.7638 43.8839 91.5098 44.0141 92.2012 44.3002C92.7076 44.5372 93.1063 44.956 93.3182 45.4735C93.5595 46.1149 93.6723 46.7975 93.6502 47.4825V51.6706C93.6713 52.3761 93.5586 53.0793 93.3182 53.7429C93.1145 54.2749 92.7218 54.7132 92.2152 54.9739C91.5534 55.2728 90.8304 55.4112 90.105 55.3777L87.3152 55.3762ZM89.4044 53.9188H90.0402C90.4032 53.9508 90.7664 53.8612 91.0729 53.6641C91.2917 53.4756 91.4298 53.2102 91.4583 52.9227C91.5097 52.5267 91.5333 52.1276 91.5287 51.7283V47.3418C91.5371 46.9669 91.5041 46.5923 91.4302 46.2248C91.4068 46.0989 91.3584 45.979 91.2878 45.8722C91.2173 45.7654 91.126 45.6738 91.0194 45.6029C90.7085 45.4479 90.3615 45.3793 90.0149 45.4046H89.4044V53.9188ZM101.161 55.531C100.486 55.5641 99.8148 55.4072 99.2241 55.078C98.7417 54.7745 98.3774 54.3154 98.1915 53.7767C97.9711 53.1304 97.8659 52.4504 97.8806 51.7677V47.4839C97.8647 46.8085 97.97 46.1357 98.1915 45.4974C98.3797 44.9691 98.7444 44.5219 99.2241 44.2313C99.8179 43.9116 100.488 43.7598 101.161 43.7923C101.842 43.7572 102.519 43.909 103.12 44.2313C103.597 44.5247 103.961 44.971 104.152 45.4974C104.379 46.1346 104.486 46.8079 104.47 47.4839V51.7832C104.484 52.4581 104.377 53.1301 104.152 53.7668C103.96 54.3023 103.598 54.7597 103.12 55.0681C102.524 55.4057 101.845 55.5663 101.161 55.531ZM101.161 53.9835C101.434 54.0074 101.706 53.9303 101.925 53.7668C102.099 53.5998 102.215 53.3822 102.257 53.145C102.316 52.8613 102.344 52.5722 102.342 52.2826V47.007C102.345 46.7173 102.317 46.4281 102.257 46.1446C102.214 45.9139 102.098 45.7032 101.925 45.5438C101.703 45.3797 101.429 45.3017 101.154 45.3244C100.886 45.3056 100.62 45.3835 100.404 45.5438C100.228 45.7013 100.109 45.9125 100.065 46.1446C100.006 46.4281 99.9777 46.7173 99.981 47.007V52.2826C99.9789 52.5719 100.005 52.8607 100.058 53.145C100.097 53.3835 100.213 53.6024 100.39 53.7668C100.611 53.9331 100.886 54.0122 101.161 53.9891V53.9835ZM108.869 55.3692V43.9189H110.325L113.111 50.4537V43.9189H114.836V55.3762H113.45L110.648 48.5306V55.3762L108.869 55.3692ZM119.435 55.3692V43.9189H124.243V45.3905H121.528V48.6853H123.664V50.1414H121.527V53.9328H124.27V55.3762L119.435 55.3692ZM131.23 55.531C130.627 55.5533 130.03 55.4144 129.499 55.1286C129.034 54.8567 128.667 54.4432 128.453 53.9483C128.198 53.3435 128.064 52.6952 128.057 52.0392L129.854 51.6861C129.866 52.0819 129.921 52.4752 130.017 52.8594C130.082 53.1528 130.224 53.4237 130.428 53.6444C130.524 53.7386 130.638 53.8121 130.763 53.8605C130.888 53.9088 131.022 53.9311 131.157 53.9258C131.293 53.9396 131.43 53.919 131.556 53.8659C131.682 53.8128 131.793 53.7289 131.878 53.6219C132.027 53.3932 132.102 53.1238 132.091 52.851C132.109 52.4153 131.991 51.9848 131.752 51.62C131.491 51.2627 131.188 50.9395 130.847 50.6577L129.405 49.3915C129.016 49.0628 128.688 48.668 128.436 48.2253C128.181 47.7347 128.057 47.1867 128.076 46.6341C128.051 46.249 128.109 45.863 128.246 45.502C128.382 45.1411 128.594 44.8134 128.868 44.5408C129.467 44.0249 130.242 43.7611 131.031 43.805C131.492 43.7902 131.95 43.8747 132.375 44.0526C132.715 44.2031 133.01 44.4398 133.23 44.7391C133.447 45.0405 133.607 45.3784 133.704 45.7366C133.81 46.1223 133.877 46.5178 133.903 46.9169L132.12 47.2278C132.106 46.9044 132.066 46.5826 132.001 46.2655C131.957 46.0181 131.844 45.7879 131.676 45.6015C131.584 45.5165 131.476 45.4513 131.357 45.4099C131.239 45.3685 131.114 45.3519 130.989 45.361C130.855 45.3526 130.72 45.3758 130.596 45.4285C130.472 45.4813 130.362 45.5622 130.274 45.6648C130.105 45.88 130.017 46.1481 130.027 46.4217C130.013 46.7567 130.097 47.0884 130.267 47.377C130.462 47.6649 130.695 47.9244 130.961 48.1479L132.389 49.407C132.863 49.8052 133.271 50.2751 133.599 50.7998C133.947 51.3821 134.121 52.0519 134.101 52.73C134.111 53.2385 133.986 53.7406 133.741 54.1861C133.504 54.6021 133.155 54.944 132.735 55.1737C132.273 55.421 131.754 55.5441 131.23 55.531ZM138.132 55.3762V43.9189H140.191V55.3762H138.132ZM144.242 55.3762L146.532 43.9189H148.773L151.058 55.3762H149.12L148.667 52.7314H146.674L146.207 55.3762H144.242ZM146.886 51.4019H148.442L147.664 46.5919L146.886 51.4019Z" fill="#ED1C24"/>
</svg>
