<svg width="203" height="42" viewBox="0 0 203 42" fill="none" xmlns="http://www.w3.org/2000/svg">
<path d="M185.166 0.653984C172.432 0.625936 45.9805 0.635285 45.9805 0.635285C43.6432 0.635285 37.7343 0.953166 32.8913 3.82344L32.882 3.83279L32.8726 3.84214C28.6186 6.39454 26.9451 9.82578 25.7296 12.3314C25.6175 12.5652 25.4959 12.8083 25.3837 13.042L20.4472 22.9337C19.4468 24.9345 18.0257 27.384 14.8189 30.1795C11.612 32.975 0 41.2866 0 41.2866C0 41.2866 6.45111 41.2866 17.4087 41.2866C28.3755 41.2866 52.3288 41.2866 54.5446 41.2586L58.5275 41.2866L59.6494 39.0428C60.762 39.772 62.0148 40.333 63.3892 40.707C64.7542 41.0809 66.2595 41.2679 67.8582 41.2679L89.9229 41.2773H94.0366L95.1773 38.9867C96.3179 39.7533 97.6081 40.333 99.0199 40.7163C100.385 41.0903 101.9 41.2773 103.498 41.2773L163.428 41.324C164.662 41.296 166.532 41.2492 168.561 40.2582L168.57 40.2488L168.58 40.2395C171.356 38.8651 172.488 36.6213 172.918 35.7705L174.012 33.6014C174.638 32.3579 174.919 31.0303 174.872 29.7401C175.087 29.6185 175.302 29.497 175.508 29.3755C179.893 26.7763 181.912 23.5788 183.436 20.5122L183.455 20.4748L183.473 20.4374L185.166 16.9407C186.016 15.2391 186.839 13.5282 188.597 11.9762C190.168 10.5831 202.677 0.644634 202.677 0.644634C202.677 0.644634 193.636 0.663333 185.166 0.653984Z" fill="#E20E19"/>
<path d="M166.981 32.7789C166.719 33.3025 166.392 33.9102 165.635 34.2842C164.877 34.6581 164.045 34.6581 163.129 34.6862L156.968 34.6675L159.988 28.6838L166.149 28.7025C166.944 28.7025 167.533 28.8895 167.907 29.2729C168.281 29.6468 168.346 30.0956 168.075 30.6285L166.981 32.7789ZM165.485 30.7501C165.513 30.7033 165.523 30.6472 165.513 30.6005C165.504 30.5537 165.485 30.507 165.448 30.4696C165.41 30.4322 165.364 30.4041 165.298 30.3854C165.233 30.3667 165.167 30.3574 165.092 30.3574L161.652 30.348L160.306 33.0126L163.746 33.022C163.905 33.022 164.064 32.9846 164.223 32.9004C164.382 32.8256 164.485 32.7321 164.541 32.6199L165.485 30.7501Z" fill="white"/>
<path d="M18.7643 34.6395C23.2894 32.3115 25.1873 28.2819 26.3841 25.8885L31.3206 15.9968C32.508 13.6127 33.4055 11.2566 36.2851 9.52696C39.1648 7.81601 43.157 7.26439 45.9992 7.26439L68.0639 7.1709L64.2773 14.7626L42.9887 14.8561C42.409 14.8561 41.8106 15.0338 41.2123 15.3984C40.6046 15.763 40.1838 16.1744 39.9408 16.6512L35.6587 25.2247C35.5372 25.4677 35.238 26.0194 35.1351 26.225C34.9482 26.599 34.8547 26.8047 34.5835 27.4031C36.0046 27.3189 36.5189 27.2535 37.6314 27.2348C38.342 27.2254 49.1967 27.0478 49.1967 27.0478L50.6833 24.0747H42.8765L45.9992 17.8199L62.8001 17.8293L54.423 34.6115C54.4324 34.6115 27.8893 34.6395 18.7643 34.6395Z" fill="white"/>
<path d="M152.929 34.6581L155.949 28.6744L158.464 28.6838L155.444 34.6674L152.929 34.6581Z" fill="white"/>
<path d="M67.8583 34.6207C65.016 34.6207 63.0059 33.7699 61.8279 32.0683C60.6685 30.3574 60.6872 28.3005 61.884 25.907L66.8205 16.0153C68.0078 13.6312 68.9054 11.2752 71.785 9.54552C74.6646 7.83458 78.6568 7.28296 81.4991 7.28296L103.545 7.31101L99.7585 14.9027L78.4886 14.8747C77.9089 14.8747 77.3105 15.0523 76.7122 15.417C76.1045 15.7816 75.6837 16.193 75.4406 16.6698L71.1586 25.2432C71.0371 25.4863 70.981 25.72 70.981 25.9351C70.9903 26.1501 71.0464 26.3465 71.1586 26.5147C71.2708 26.683 71.4391 26.8139 71.6448 26.9074C71.8598 27.0009 72.1029 27.0477 72.3927 27.057H84.6872L86.1738 24.0839H78.367L81.4897 17.8291L98.2907 17.8385L89.9136 34.6207H67.8583Z" fill="white"/>
<path d="M103.498 34.6299C100.656 34.6299 98.6459 33.7791 97.4679 32.0775C96.3086 30.3666 96.3273 28.3097 97.5146 25.9162L106.799 7.30151H115.746L106.789 25.2618C106.668 25.5049 106.612 25.7386 106.612 25.9536C106.621 26.1687 106.677 26.365 106.789 26.5333C106.901 26.7016 107.07 26.8325 107.275 26.926C107.49 27.0195 107.734 27.0662 108.023 27.0756H112.511L122.384 7.31086H131.378L121.515 27.0849H128.153L138.016 7.31086H147.011L133.379 34.6393L103.498 34.6299Z" fill="white"/>
<path d="M177.49 17.5486C176.293 19.9421 174.993 21.9522 172.114 23.6632C169.225 25.3741 166.205 25.9444 163.363 25.9444H150.274L145.926 34.6488H136.979L150.619 7.32036C150.619 7.32036 179.163 7.14272 185.427 6.91833C181.622 9.45203 180.397 11.6305 179.201 14.0239L177.49 17.5486ZM170.45 14.9308C169.468 14.9121 168.86 14.9028 168.094 14.9121C167 14.9215 155.78 14.9121 155.78 14.9121L154.06 18.3527H166.373C166.644 18.3527 166.944 18.306 167.252 18.2031C167.561 18.1003 167.86 17.9694 168.14 17.8011C168.421 17.6328 168.673 17.4458 168.898 17.2214C169.122 17.0064 169.262 16.7726 169.552 16.3613C169.833 15.9499 170.048 15.6601 170.45 14.9308Z" fill="white"/>
<path d="M149.18 34.6486L149.965 33.0873H151.928L151.143 34.6486H149.18Z" fill="white"/>
</svg>
