<svg width="208" height="26" viewBox="0 0 208 26" fill="none" xmlns="http://www.w3.org/2000/svg">
<path d="M0.0855713 25.5677V4.27386C0.0855713 4.27386 0.12254 3.91342 0.159508 3.7563C0.196477 3.58995 0.279656 3.28496 0.362835 3.10936C0.446014 2.93376 0.741761 2.4162 0.871151 2.24984C1.00978 2.08348 1.36098 1.75077 1.55507 1.60289C1.74915 1.45502 2.29444 1.16851 2.47928 1.09458C2.66412 1.02064 2.96911 0.946703 3.14471 0.909735C3.32031 0.872766 3.67151 0.882008 3.67151 0.882008H8.56983C12.3221 0.882008 15.0485 1.60289 16.7768 3.03542C18.4959 4.47719 19.3554 6.68605 19.3554 9.6805C19.3554 12.6749 18.4774 14.8653 16.7214 16.2609C14.9654 17.6564 12.2667 18.3496 8.64376 18.3496H4.25376V22.0372V22.1666C4.25376 22.1666 4.21679 22.527 4.17983 22.6841C4.14286 22.8505 4.05968 23.1555 3.9765 23.3403C3.89332 23.5159 3.59757 24.0335 3.46818 24.1999C3.33879 24.3662 2.97835 24.6989 2.79351 24.8468C2.59943 24.9947 2.05414 25.2812 1.8693 25.3551C1.68446 25.4291 1.37947 25.503 1.20387 25.54C1.02827 25.5769 0.677066 25.5677 0.677066 25.5677H0.0855713ZM13.8286 13.2387C14.6604 12.3515 15.0855 11.0576 15.0855 9.34778C15.0855 7.63799 14.5587 6.42727 13.4959 5.72487C12.433 5.02247 10.7694 4.66203 8.50513 4.66203H4.25376V14.5603H9.09663C11.4164 14.5696 12.9876 14.126 13.8286 13.2387Z" fill="#D30860"/>
<path d="M44.9837 22.2131C42.4699 24.6622 39.3738 25.8822 35.6862 25.8822C31.9986 25.8822 28.9025 24.6622 26.3886 22.2131C23.884 19.7639 22.6271 16.714 22.6271 13.0634C22.6271 9.41277 23.884 6.35363 26.3886 3.90447C28.8932 1.45531 31.9893 0.235352 35.6862 0.235352C39.3738 0.235352 42.4699 1.45531 44.9837 3.90447C47.4884 6.35363 48.7453 9.40352 48.7453 13.0634C48.736 16.714 47.4884 19.7639 44.9837 22.2131ZM41.9061 6.69559C40.2148 4.94883 38.1353 4.07083 35.6769 4.07083C33.2185 4.07083 31.1391 4.94883 29.4478 6.69559C27.7564 8.44234 26.9154 10.568 26.9154 13.0634C26.9154 15.5588 27.7657 17.6845 29.4478 19.4312C31.1391 21.178 33.2093 22.056 35.6769 22.056C38.1353 22.056 40.2148 21.178 41.9061 19.4312C43.5974 17.6845 44.4385 15.5588 44.4385 13.0634C44.4477 10.568 43.5974 8.44234 41.9061 6.69559Z" fill="#D30860"/>
<path d="M54.0872 25.5677V4.2739C54.0872 4.2739 54.1241 3.91346 54.1611 3.75634C54.1981 3.59922 54.2812 3.29423 54.3644 3.11863C54.4476 2.94303 54.7433 2.42548 54.8727 2.25912C55.0114 2.09276 55.3626 1.76004 55.5474 1.61217C55.7415 1.4643 56.2868 1.17779 56.4716 1.10385C56.6565 1.02992 56.9615 0.95598 57.1371 0.919012C57.3127 0.882044 57.6731 0.891286 57.6731 0.891286H62.5714C66.3237 0.891286 69.0594 1.61217 70.7784 3.0447C72.4974 4.48647 73.357 6.69533 73.357 9.68977C73.357 12.6842 72.479 14.8746 70.723 16.2702C68.967 17.6657 66.2775 18.3589 62.6454 18.3589H58.2646V22.0465L58.2553 22.1759C58.2553 22.1759 58.2184 22.5363 58.1814 22.6934C58.1444 22.8505 58.0613 23.1555 57.9781 23.3311C57.8949 23.5067 57.5992 24.0243 57.4605 24.1906C57.3311 24.357 56.9707 24.6897 56.7859 24.8376C56.5918 24.9855 56.0465 25.272 55.8616 25.3459C55.6768 25.4198 55.3718 25.4938 55.1962 25.5307C55.0206 25.5677 54.6602 25.5585 54.6602 25.5585H54.0872V25.5677ZM67.8209 13.2387C68.662 12.3515 69.0779 11.0576 69.0779 9.34782C69.0779 7.63802 68.5511 6.42731 67.4882 5.72491C66.4254 5.02251 64.7618 4.66207 62.5067 4.66207H58.2646V14.5604H63.1075C65.418 14.5696 66.9891 14.126 67.8209 13.2387Z" fill="#D30860"/>
<path d="M81.5455 25.568C81.5455 25.568 81.1851 25.531 81.028 25.494C80.8708 25.4571 80.5659 25.3739 80.3903 25.2907C80.2147 25.2075 79.6971 24.9118 79.5307 24.7732C79.3644 24.6438 79.0317 24.2833 78.8838 24.0985C78.7359 23.9044 78.4494 23.3591 78.3755 23.1743C78.3015 22.9894 78.2276 22.6844 78.1906 22.5088C78.1537 22.3332 78.1167 21.982 78.1167 21.982V21.9081V4.71778L78.1629 4.24643C78.1629 4.24643 78.1999 3.88599 78.2368 3.72887C78.2738 3.57176 78.357 3.26677 78.4402 3.09117C78.5234 2.91557 78.8191 2.39801 78.9577 2.23165C79.0871 2.06529 79.4476 1.73258 79.6324 1.5847C79.8265 1.43683 80.3718 1.15033 80.5566 1.07639C80.7415 1.00245 81.0464 0.928515 81.222 0.891546C81.3976 0.854578 81.7581 0.86382 81.7581 0.86382H81.8413H87.8024C89.4753 0.86382 90.917 1.06715 92.137 1.46456C93.3477 1.86197 94.2534 2.40725 94.8357 3.09117C95.9632 4.36658 96.5362 5.79911 96.5362 7.40723C96.5362 9.33883 95.9262 10.7806 94.697 11.7233C94.2534 12.056 93.9392 12.2593 93.7821 12.3425C93.6157 12.4257 93.32 12.5643 92.9041 12.7492C94.4383 13.0819 95.6582 13.7658 96.5639 14.8194C97.4697 15.873 97.9225 17.1669 97.9225 18.7288C97.9225 20.4479 97.331 21.9728 96.1573 23.2944C94.771 24.8286 92.3865 25.5957 89.0131 25.5957H82.0538L81.5455 25.568ZM82.3126 11.0948L87.6546 11.1133C90.6675 11.1133 92.1739 10.0874 92.1739 8.0357C92.1739 6.85271 91.8135 6.01167 91.0834 5.49412C90.3533 4.97656 89.2165 4.71778 87.6915 4.71778L82.3219 4.72702V11.0948H82.3126ZM82.3126 21.714H88.8838C90.4179 21.714 91.5917 21.4737 92.405 20.9931C93.2183 20.5125 93.625 19.5976 93.625 18.2482C93.625 16.0578 91.869 14.958 88.357 14.958H82.3126V21.714Z" fill="#D30860"/>
<path d="M120.446 25.577H106.934H106.573C106.573 25.577 106.213 25.54 106.056 25.5031C105.898 25.4661 105.529 25.346 105.353 25.2628C105.178 25.1796 104.651 24.8839 104.494 24.7452C104.327 24.6158 103.995 24.2554 103.847 24.0706C103.699 23.8857 103.412 23.3312 103.338 23.1463C103.274 22.9615 103.191 22.6565 103.154 22.4809C103.117 22.3053 103.117 21.9449 103.117 21.9449V21.8617V4.3941L103.126 4.27395C103.126 4.27395 103.163 3.91351 103.2 3.75639C103.237 3.59928 103.32 3.29429 103.403 3.11869C103.486 2.94309 103.782 2.42553 103.921 2.25917C104.05 2.09281 104.41 1.7601 104.595 1.61222C104.789 1.46435 105.335 1.17784 105.52 1.10391C105.704 1.03921 106.009 0.956033 106.185 0.919065C106.361 0.882096 106.675 0.85437 106.675 0.85437H106.776H120.464V0.919065L120.418 1.39041C120.418 1.39041 120.381 1.75085 120.344 1.90797C120.307 2.06509 120.224 2.37008 120.141 2.54568C120.057 2.72128 119.762 3.23883 119.623 3.40519C119.494 3.57155 119.133 3.90427 118.948 4.05214C118.754 4.20001 118.209 4.48652 118.024 4.56046C117.839 4.63439 117.534 4.70833 117.359 4.7453C117.183 4.78227 116.915 4.77302 116.915 4.77302H116.85H107.294V11.3164H119.115L119.096 11.6492C119.096 11.6492 119.059 12.0096 119.022 12.1667C118.985 12.3238 118.902 12.6288 118.819 12.8044C118.736 12.98 118.44 13.4976 118.301 13.6639C118.172 13.8303 117.812 14.163 117.627 14.3109C117.433 14.4588 116.887 14.7453 116.702 14.8192C116.518 14.8931 116.213 14.9671 116.037 15.004C116.037 15.004 115.889 15.0318 115.778 15.0318C115.667 15.0318 115.464 15.0225 115.464 15.0225H107.294V21.6399H116.721L117.174 21.6584C117.349 21.6768 117.525 21.7231 117.525 21.7231C117.682 21.76 118.033 21.8802 118.209 21.9633C118.385 22.0465 118.902 22.3423 119.068 22.4809C119.235 22.6103 119.568 22.9707 119.715 23.1556C119.863 23.3497 120.15 23.8949 120.224 24.0798C120.288 24.2646 120.372 24.5696 120.409 24.7452C120.446 24.9208 120.446 25.2813 120.446 25.2813V25.3644V25.577Z" fill="#D30860"/>
<path d="M141.647 25.5773H126.222V0.863892H126.471L126.989 0.873134C126.989 0.873134 127.349 0.910102 127.507 0.947071C127.664 0.984039 127.969 1.06722 128.144 1.1504C128.32 1.23358 128.837 1.52932 129.004 1.66796C129.17 1.79734 129.503 2.15779 129.651 2.34263C129.799 2.53671 130.085 3.082 130.159 3.26684C130.224 3.45168 130.307 3.75667 130.344 3.93227C130.381 4.10787 130.372 4.2465 130.372 4.2465L130.381 4.4868V21.6124H137.636L137.839 21.6032L138.209 21.6402C138.209 21.6402 138.569 21.6771 138.726 21.7141C138.884 21.7511 139.189 21.8342 139.364 21.9174C139.54 22.0006 140.057 22.2963 140.224 22.435C140.39 22.5644 140.723 22.9248 140.871 23.1096C141.019 23.3037 141.305 23.849 141.379 24.0339C141.453 24.2187 141.527 24.5237 141.564 24.6993C141.601 24.8749 141.629 25.1614 141.629 25.1614V25.5773H141.647Z" fill="#D30860"/>
<path d="M168.662 25.5772C168.477 25.5772 168.403 25.5588 168.246 25.5403C168.098 25.5125 168.033 25.5125 167.811 25.4571C167.59 25.4016 167.368 25.3185 167.183 25.226C166.998 25.1336 166.656 24.9211 166.499 24.8009C166.351 24.6808 165.945 24.2926 165.797 24.0893C165.64 23.8859 165.408 23.47 165.408 23.47L163.865 19.9673L162.174 16.1226L157.691 5.89155L153.006 16.5847L151.518 19.9673L150.03 23.3499C150.03 23.3499 149.743 23.8675 149.632 24.0246C149.512 24.1724 149.068 24.6623 148.8 24.8379C148.532 25.0135 148.181 25.2076 147.987 25.2907C147.784 25.3647 147.654 25.4294 147.405 25.4848C147.155 25.5403 146.897 25.5865 146.693 25.5772C146.49 25.568 145.242 25.5772 145.242 25.5772H144.604L154.743 2.56439L154.836 2.36106L155.085 2.06531L155.353 1.76957C155.353 1.76957 155.63 1.53851 155.769 1.45534C155.908 1.37216 156.185 1.21504 156.37 1.1411C156.555 1.07641 157.128 0.919293 157.34 0.891566C157.553 0.873082 158.043 0.882324 158.274 0.919293C158.514 0.947019 158.994 1.13186 159.17 1.21504C159.355 1.29822 159.743 1.52003 159.882 1.6679C160.002 1.79729 160.168 1.91744 160.168 1.91744L160.298 2.06531C160.298 2.06531 160.427 2.23167 160.501 2.35182C160.575 2.47197 160.695 2.67529 160.695 2.67529L170.778 25.5772H169.013C169.022 25.5772 168.847 25.5772 168.662 25.5772Z" fill="#D30860"/>
<path d="M173.643 25.2539C173.44 25.0414 173.338 24.7918 173.338 24.4961C173.338 24.2003 173.44 23.9508 173.643 23.7382C173.846 23.5349 174.105 23.4332 174.401 23.4332C174.697 23.4332 174.955 23.5349 175.168 23.7382C175.381 23.9415 175.482 24.2003 175.482 24.4961C175.482 24.7918 175.381 25.0414 175.168 25.2539C174.955 25.4665 174.697 25.5682 174.401 25.5682C174.105 25.5682 173.846 25.4665 173.643 25.2539Z" fill="#D30860"/>
<path d="M192.423 24.4311C191.665 25.1797 190.723 25.5587 189.595 25.5587C188.458 25.5587 187.516 25.1797 186.758 24.4311C186 23.6825 185.621 22.7583 185.621 21.677C185.621 20.5956 186 19.6714 186.758 18.9228C187.516 18.1742 188.458 17.7953 189.595 17.7953C190.723 17.7953 191.675 18.1742 192.423 18.9228C193.181 19.6714 193.551 20.5956 193.551 21.677C193.551 22.7583 193.181 23.6825 192.423 24.4311ZM187.885 23.4515C188.329 23.9136 188.902 24.1354 189.595 24.1354C190.279 24.1354 190.852 23.9043 191.305 23.4515C191.758 22.9894 191.98 22.3979 191.98 21.677C191.98 20.9468 191.758 20.3554 191.305 19.9025C190.852 19.4404 190.288 19.2186 189.595 19.2186C188.902 19.2186 188.338 19.4496 187.885 19.9025C187.432 20.3646 187.211 20.9561 187.211 21.677C187.211 22.3979 187.432 22.9986 187.885 23.4515Z" fill="#D30860"/>
<path d="M196.961 21.3627V25.4478H195.371V17.9062H196.961V19.2833C197.192 18.8212 197.534 18.4607 197.987 18.1927C198.449 17.9247 198.939 17.7953 199.475 17.7953C200.667 17.7953 201.48 18.2851 201.906 19.274C202.654 18.2944 203.588 17.7953 204.706 17.7953C205.565 17.7953 206.249 18.0541 206.776 18.5716C207.303 19.0892 207.571 19.847 207.571 20.8267V25.4478H205.981V21.3073C205.981 19.921 205.399 19.2186 204.244 19.2186C203.708 19.2186 203.236 19.3942 202.83 19.7361C202.432 20.0781 202.22 20.5864 202.192 21.2426V25.4385H200.602V21.3073C200.602 20.5864 200.473 20.0596 200.223 19.7269C199.965 19.3942 199.567 19.2186 199.013 19.2186C198.458 19.2186 197.987 19.4034 197.58 19.7639C197.164 20.1335 196.961 20.6603 196.961 21.3627Z" fill="#D30860"/>
<path d="M181.194 25.577C180.14 25.577 179.235 25.2165 178.468 24.5049C177.71 23.784 177.331 22.8505 177.331 21.6953C177.331 20.54 177.728 19.5881 178.523 18.8672C179.318 18.1371 180.288 17.7766 181.425 17.7766C182.562 17.7766 183.532 18.174 184.318 18.9596L183.375 20.1149C182.719 19.5419 182.063 19.2646 181.397 19.2646C180.732 19.2646 180.15 19.4864 179.669 19.93C179.179 20.3736 178.93 20.9374 178.93 21.6398C178.93 22.3422 179.17 22.9337 179.66 23.4143C180.14 23.8949 180.741 24.1444 181.444 24.1444C182.155 24.1444 182.821 23.821 183.449 23.174L184.392 24.1999C183.458 25.1056 182.395 25.577 181.194 25.577Z" fill="#D30860"/>
</svg>
