<svg width="218" height="42" viewBox="0 0 218 42" fill="none" xmlns="http://www.w3.org/2000/svg">
<path d="M11.7715 7.23657C12.3815 7.23657 12.9453 7.35672 13.4905 7.58777C14.0266 7.82807 14.4887 8.1423 14.8769 8.53971C15.265 8.93712 15.57 9.40847 15.8103 9.94451C16.0414 10.4806 16.1615 11.0536 16.1615 11.6635C16.1615 12.2735 16.0414 12.8373 15.8103 13.3548C15.5793 13.8816 15.265 14.3438 14.8769 14.7412C14.4887 15.1386 14.0266 15.4528 13.4905 15.6931C12.9545 15.9242 12.3815 16.0443 11.7715 16.0443H7.7974V7.23657H11.7715ZM0.570068 27.9019C0.570068 28.9186 0.921269 29.7873 1.62367 30.4897C2.32607 31.1921 3.17634 31.5433 4.16525 31.5433C5.18188 31.5433 6.05064 31.1921 6.75304 30.4897C7.45544 29.7873 7.80664 28.9278 7.80664 27.9019V22.7356H12.3168C13.8325 22.7356 15.265 22.4491 16.6144 21.8668C17.9637 21.2846 19.1375 20.499 20.1449 19.4916C21.1522 18.4842 21.9471 17.3197 22.5201 15.9796C23.1023 14.6487 23.3888 13.207 23.3888 11.6543C23.3888 10.1109 23.1023 8.65986 22.5201 7.31051C21.9378 5.96116 21.1522 4.78741 20.1449 3.78002C19.1375 2.77263 17.9637 1.98705 16.6144 1.4048C15.265 0.822548 13.8325 0.536042 12.3168 0.536042H4.16525C3.17634 0.536042 2.32607 0.887243 1.62367 1.58964C0.921269 2.29204 0.570068 3.14232 0.570068 4.13122V27.9019ZM41.0413 32.0794C43.2501 32.0794 45.3296 31.6635 47.2889 30.8132C49.2483 29.9722 50.9488 28.8261 52.3906 27.3844C53.8416 25.9334 54.9784 24.2328 55.8194 22.2735C56.6604 20.3142 57.0856 18.2347 57.0856 16.0351C57.0856 13.8354 56.6697 11.7467 55.8194 9.79664C54.9784 7.83731 53.8323 6.13676 52.3906 4.69499C50.9488 3.25322 49.239 2.1072 47.2889 1.26617C45.3296 0.415895 43.2501 0 41.0413 0C38.8324 0 36.7622 0.415895 34.8213 1.25693C32.8805 2.09796 31.1799 3.24398 29.7382 4.68575C28.2964 6.13676 27.1504 7.83731 26.3093 9.78739C25.4683 11.7467 25.0524 13.8262 25.0524 16.0258C25.0524 18.2254 25.4683 20.3142 26.3093 22.2642C27.1504 24.2236 28.2964 25.9241 29.7382 27.3751C31.1892 28.8169 32.8805 29.9629 34.8213 30.804C36.7622 31.6635 38.8416 32.0794 41.0413 32.0794ZM32.2797 16.0443C32.2797 14.8336 32.5108 13.6968 32.9637 12.634C33.4165 11.5711 34.045 10.6377 34.8491 9.84285C35.6531 9.04803 36.5773 8.41032 37.6402 7.93897C38.703 7.46762 39.8398 7.23657 41.0505 7.23657C42.2612 7.23657 43.4072 7.46762 44.4886 7.93897C45.5607 8.41032 46.5034 9.03878 47.2982 9.84285C48.1022 10.6469 48.7215 11.5711 49.1743 12.634C49.6272 13.6968 49.8582 14.8336 49.8582 16.0443C49.8582 17.255 49.6364 18.3918 49.1743 19.4546C48.7215 20.5175 48.093 21.4417 47.2982 22.2458C46.4941 23.0498 45.5607 23.669 44.4886 24.1311C43.4072 24.584 42.2705 24.8151 41.0505 24.8151C39.8398 24.8151 38.703 24.584 37.6402 24.1311C36.5773 23.6783 35.6531 23.0498 34.8491 22.2458C34.045 21.4509 33.4258 20.5175 32.9637 19.4546C32.5108 18.3918 32.2797 17.255 32.2797 16.0443ZM71.0227 7.23657C71.6234 7.23657 72.1964 7.35672 72.7417 7.58777C73.2777 7.82807 73.7398 8.1423 74.128 8.53971C74.5162 8.93712 74.8304 9.40847 75.0615 9.94451C75.3018 10.4806 75.4127 11.0536 75.4127 11.6635C75.4127 12.2735 75.2925 12.8373 75.0615 13.3548C74.8304 13.8816 74.5162 14.3438 74.128 14.7412C73.7398 15.1386 73.2777 15.4528 72.7417 15.6931C72.2057 15.9242 71.6327 16.0443 71.0227 16.0443H67.0486V7.23657H71.0227ZM59.812 27.9019C59.812 28.9186 60.1632 29.7873 60.8656 30.4897C61.568 31.1921 62.4183 31.5433 63.4072 31.5433C64.4238 31.5433 65.2926 31.1921 65.995 30.4897C66.6974 29.7873 67.0486 28.9278 67.0486 27.9019V22.7356H71.5587C73.0744 22.7356 74.5069 22.4491 75.8563 21.8668C77.2056 21.2846 78.3886 20.499 79.3868 19.4916C80.3942 18.4842 81.189 17.3197 81.762 15.9796C82.3443 14.6487 82.6308 13.207 82.6308 11.6543C82.6308 10.1109 82.3443 8.65986 81.762 7.31051C81.1797 5.96116 80.3849 4.78741 79.3868 3.78002C78.3886 2.77263 77.2056 1.98705 75.8563 1.4048C74.5069 0.822548 73.0744 0.536042 71.5587 0.536042H63.4164C62.4275 0.536042 61.5772 0.887243 60.8748 1.58964C60.1632 2.29204 59.812 3.14232 59.812 4.13122V27.9019ZM113.851 3.26246C113.629 2.46764 113.222 1.81145 112.631 1.2939C112.039 0.785579 111.291 0.5268 110.376 0.5268C109.655 0.5268 108.989 0.748611 108.352 1.19223C107.714 1.63585 107.261 2.20886 106.984 2.92975L102.104 16.3216L97.2241 2.92975C96.9468 2.21811 96.4939 1.63585 95.8655 1.19223C95.237 0.748611 94.5531 0.5268 93.8414 0.5268C92.9357 0.5268 92.1779 0.785579 91.5864 1.2939C90.9949 1.80221 90.5882 2.4584 90.3664 3.26246L84.4145 27.0794C84.3313 27.3844 84.2943 27.6709 84.2943 27.9481C84.2943 28.4472 84.3868 28.9093 84.5808 29.3345C84.7749 29.7596 85.0245 30.1385 85.3479 30.4712C85.6622 30.804 86.0411 31.0627 86.4847 31.2568C86.9283 31.4509 87.3904 31.5433 87.8895 31.5433C88.6936 31.5433 89.4145 31.2938 90.0799 30.7762C90.7361 30.2679 91.1797 29.6117 91.4015 28.8169L94.5069 16.5341L99.091 29.1866C99.3405 29.8982 99.7194 30.4712 100.228 30.9056C100.736 31.3308 101.365 31.5433 102.113 31.5433C102.853 31.5433 103.481 31.3308 103.999 30.9056C104.507 30.4805 104.886 29.9075 105.135 29.1866L109.729 16.5341L112.788 28.8169C113 29.6117 113.453 30.2679 114.128 30.7762C114.803 31.2845 115.542 31.5433 116.337 31.5433C116.974 31.5433 117.51 31.4232 117.945 31.1921C118.388 30.9611 118.749 30.6561 119.035 30.2864C119.322 29.9167 119.544 29.5193 119.682 29.1126C119.821 28.6968 119.886 28.2993 119.886 27.9112C119.886 27.7725 119.886 27.6339 119.886 27.4953C119.886 27.3566 119.858 27.218 119.803 27.0794L113.851 3.26246ZM135.967 10.6654L139.692 19.7227H132.168L135.967 10.6654ZM143.656 29.4361C143.934 30.0923 144.377 30.6099 144.978 30.9888C145.588 31.3585 146.235 31.5433 146.919 31.5433C147.908 31.5433 148.749 31.2014 149.442 30.5082C150.135 29.815 150.477 28.9648 150.477 27.9481C150.477 27.4491 150.385 26.9685 150.191 26.4971L139.396 2.22735C138.767 0.739369 137.621 0 135.967 0C134.368 0 133.222 0.739369 132.538 2.22735L121.54 26.4971C121.318 26.9962 121.207 27.4768 121.207 27.9481C121.207 28.6136 121.327 29.1681 121.577 29.621C121.827 30.0738 122.132 30.4435 122.483 30.7393C122.843 31.0258 123.222 31.2383 123.638 31.3585C124.054 31.4879 124.424 31.5433 124.756 31.5433C125.44 31.5433 126.096 31.3585 126.697 30.9888C127.307 30.6191 127.741 30.1016 128.019 29.4361L129.507 25.9241H142.196L143.656 29.4361ZM181.364 3.26246C181.142 2.46764 180.736 1.81145 180.144 1.2939C179.553 0.785579 178.804 0.5268 177.889 0.5268C177.168 0.5268 176.503 0.748611 175.865 1.19223C175.227 1.63585 174.775 2.20886 174.497 2.92975L169.617 16.3216L164.738 2.92975C164.46 2.21811 164.008 1.63585 163.37 1.19223C162.732 0.748611 162.057 0.5268 161.346 0.5268C160.44 0.5268 159.682 0.785579 159.091 1.2939C158.499 1.80221 158.093 2.4584 157.871 3.26246L151.919 27.0794C151.836 27.3844 151.789 27.6709 151.789 27.9481C151.789 28.4472 151.891 28.9093 152.085 29.3345C152.279 29.7596 152.538 30.1385 152.852 30.4712C153.167 30.804 153.545 31.0627 153.989 31.2568C154.433 31.4509 154.904 31.5433 155.394 31.5433C156.198 31.5433 156.928 31.2938 157.584 30.7762C158.24 30.2679 158.684 29.6117 158.906 28.8169L162.002 16.5341L166.586 29.1866C166.836 29.8982 167.215 30.4712 167.723 30.9056C168.231 31.3308 168.86 31.5433 169.608 31.5433C170.357 31.5433 170.976 31.3308 171.494 30.9056C172.002 30.4805 172.381 29.9075 172.63 29.1866L177.224 16.5341L180.283 28.8169C180.505 29.6117 180.948 30.2679 181.623 30.7762C182.298 31.2845 183.037 31.5433 183.832 31.5433C184.47 31.5433 185.006 31.4232 185.44 31.1921C185.884 30.9611 186.244 30.6561 186.54 30.2864C186.826 29.9167 187.039 29.5193 187.178 29.1126C187.316 28.6968 187.381 28.2993 187.381 27.9112C187.381 27.7725 187.381 27.6339 187.381 27.4953C187.381 27.3566 187.353 27.218 187.298 27.0794L181.364 3.26246ZM203.481 10.6654L207.196 19.7227H199.673L203.481 10.6654ZM211.17 29.4361C211.447 30.0923 211.891 30.6099 212.492 30.9888C213.102 31.3585 213.749 31.5433 214.432 31.5433C215.431 31.5433 216.262 31.2014 216.956 30.5082C217.639 29.815 217.991 28.9648 217.991 27.9481C217.991 27.4491 217.898 26.9685 217.704 26.4971L206.909 2.22735C206.281 0.739369 205.135 0 203.481 0C201.882 0 200.736 0.739369 200.052 2.22735L189.054 26.4971C188.832 26.9962 188.721 27.4768 188.721 27.9481C188.721 28.6136 188.841 29.1681 189.091 29.621C189.34 30.0738 189.645 30.4435 189.996 30.7393C190.357 31.0258 190.745 31.2383 191.152 31.3585C191.568 31.4879 191.937 31.5433 192.27 31.5433C192.963 31.5433 193.61 31.3585 194.211 30.9888C194.821 30.6191 195.255 30.1016 195.532 29.4361L197.02 25.9241H209.71L211.17 29.4361Z" fill="#A386BD"/>
<path d="M189.174 38.4469C188.98 38.4469 188.804 38.4839 188.638 38.5578C188.471 38.6317 188.324 38.7242 188.203 38.8535C188.083 38.9737 187.982 39.1216 187.908 39.2879C187.834 39.4543 187.797 39.6391 187.797 39.8332C187.797 40.0273 187.834 40.2029 187.908 40.3692C187.982 40.5356 188.074 40.6835 188.203 40.8036C188.324 40.9238 188.471 41.0254 188.638 41.0994C188.804 41.1733 188.98 41.2103 189.174 41.2103C189.368 41.2103 189.544 41.1733 189.71 41.0994C189.876 41.0254 190.024 40.933 190.144 40.8036C190.264 40.6835 190.366 40.5356 190.44 40.3692C190.514 40.2029 190.551 40.018 190.551 39.8332C190.551 39.6391 190.514 39.4635 190.44 39.2879C190.366 39.1216 190.274 38.9737 190.144 38.8535C190.024 38.7334 189.876 38.6317 189.71 38.5578C189.544 38.4839 189.368 38.4469 189.174 38.4469ZM194.858 33.641C194.331 33.641 193.832 33.7427 193.37 33.9367C192.908 34.1401 192.501 34.4081 192.15 34.7593C191.799 35.1105 191.531 35.5079 191.327 35.97C191.124 36.4321 191.022 36.9219 191.022 37.4487C191.022 37.9755 191.124 38.4746 191.327 38.9367C191.531 39.3988 191.799 39.8055 192.15 40.1567C192.501 40.5079 192.908 40.7759 193.37 40.9792C193.832 41.1826 194.331 41.2842 194.858 41.2842C195.458 41.2842 195.994 41.1826 196.457 40.9792C196.919 40.7759 197.335 40.4986 197.695 40.1289C197.945 39.8794 198.074 39.5929 198.074 39.2787C198.074 39.0661 198.028 38.872 197.935 38.7057C197.843 38.5393 197.723 38.3914 197.584 38.2713C197.446 38.1511 197.298 38.0587 197.131 38.0033C196.974 37.9386 196.817 37.9108 196.678 37.9108C196.457 37.9108 196.272 37.9571 196.142 38.0402C196.013 38.1327 195.884 38.2251 195.773 38.3267C195.653 38.4284 195.532 38.5208 195.394 38.604C195.255 38.6964 195.08 38.7334 194.858 38.7334C194.682 38.7334 194.516 38.6964 194.359 38.6317C194.202 38.567 194.072 38.4746 193.952 38.3545C193.832 38.2343 193.739 38.1049 193.675 37.9478C193.61 37.7907 193.573 37.6243 193.573 37.4487C193.573 37.2731 193.61 37.1068 193.675 36.9589C193.739 36.8018 193.832 36.6724 193.952 36.5523C194.072 36.4321 194.202 36.3489 194.359 36.275C194.516 36.2103 194.682 36.1733 194.858 36.1733C195.089 36.1733 195.274 36.2195 195.403 36.3027C195.532 36.3859 195.653 36.4876 195.773 36.5892C195.893 36.6909 196.013 36.7833 196.133 36.8665C196.263 36.9589 196.438 36.9959 196.678 36.9959C196.873 36.9959 197.067 36.9497 197.233 36.8665C197.399 36.7741 197.556 36.6724 197.677 36.5338C197.797 36.4044 197.898 36.2565 197.963 36.0901C198.028 35.9238 198.065 35.7667 198.065 35.6188C198.065 35.4709 198.037 35.3323 197.972 35.1844C197.917 35.0365 197.824 34.9072 197.686 34.7778C197.325 34.4081 196.909 34.1216 196.447 33.9275C195.995 33.7427 195.458 33.641 194.858 33.641ZM202.298 38.6502C201.956 38.6502 201.678 38.5301 201.447 38.299C201.216 38.068 201.105 37.7815 201.105 37.4487C201.105 37.116 201.216 36.8295 201.447 36.5985C201.678 36.3674 201.965 36.2473 202.298 36.2473C202.63 36.2473 202.917 36.3674 203.148 36.5985C203.379 36.8295 203.499 37.116 203.499 37.4487C203.499 37.7815 203.379 38.068 203.148 38.299C202.917 38.5393 202.63 38.6502 202.298 38.6502ZM206.05 37.458C206.05 36.9497 205.957 36.4598 205.754 36.007C205.56 35.5541 205.292 35.1567 204.95 34.8147C204.608 34.4728 204.211 34.2048 203.758 34.0107C203.305 33.8166 202.815 33.7149 202.298 33.7149C201.78 33.7149 201.29 33.8166 200.837 34.0107C200.385 34.2048 199.987 34.4728 199.654 34.8147C199.312 35.1567 199.044 35.5541 198.85 36.007C198.656 36.4691 198.555 36.9497 198.555 37.458C198.555 37.9755 198.656 38.4654 198.85 38.9182C199.044 39.3711 199.312 39.7685 199.654 40.1105C199.996 40.4524 200.385 40.7204 200.837 40.9145C201.29 41.1086 201.78 41.2103 202.298 41.2103C202.815 41.2103 203.305 41.1086 203.758 40.9145C204.211 40.7204 204.608 40.4524 204.95 40.1105C205.292 39.7685 205.56 39.3711 205.754 38.9182C205.948 38.4561 206.05 37.9755 206.05 37.458ZM210.2 33.7149C209.728 33.7149 209.285 33.8073 208.86 33.9829C208.444 34.1678 208.074 34.4081 207.76 34.7223C207.445 35.0365 207.205 35.397 207.02 35.8221C206.836 36.238 206.752 36.6909 206.752 37.1622V39.9441C206.752 40.1197 206.789 40.2861 206.854 40.4339C206.919 40.5818 207.011 40.7204 207.122 40.8314C207.233 40.9423 207.362 41.0439 207.529 41.1086C207.686 41.1733 207.843 41.2103 208.028 41.2103C208.203 41.2103 208.37 41.1733 208.518 41.1086C208.675 41.0439 208.804 40.9423 208.924 40.8314C209.035 40.7112 209.128 40.5818 209.201 40.4339C209.266 40.2768 209.303 40.1197 209.303 39.9441V37.153C209.303 36.9035 209.386 36.6909 209.562 36.5153C209.738 36.3397 209.95 36.2473 210.2 36.2473C210.449 36.2473 210.662 36.3397 210.837 36.5153C211.013 36.6909 211.096 36.9035 211.096 37.153V39.9349C211.096 40.1105 211.133 40.2768 211.198 40.4247C211.262 40.5726 211.364 40.7112 211.475 40.8221C211.595 40.933 211.725 41.0347 211.882 41.0994C212.03 41.1641 212.196 41.201 212.372 41.201C212.547 41.201 212.713 41.1641 212.871 41.0994C213.028 41.0347 213.157 40.933 213.277 40.8221C213.388 40.702 213.471 40.5726 213.545 40.4247C213.61 40.2676 213.647 40.1105 213.647 39.9349V37.153C213.647 36.9035 213.739 36.6909 213.915 36.5153C214.091 36.3397 214.303 36.2473 214.562 36.2473C214.802 36.2473 215.024 36.3397 215.2 36.5153C215.375 36.6909 215.468 36.9035 215.468 37.153V39.9349C215.468 40.1105 215.495 40.2768 215.569 40.4247C215.643 40.5726 215.726 40.7112 215.837 40.8221C215.948 40.933 216.087 41.0347 216.235 41.0994C216.392 41.1641 216.558 41.201 216.734 41.201C216.909 41.201 217.076 41.1641 217.224 41.0994C217.372 41.0347 217.51 40.933 217.621 40.8221C217.741 40.702 217.824 40.5726 217.898 40.4247C217.963 40.2676 218 40.1105 218 39.9349V37.153C218 36.6816 217.908 36.238 217.732 35.8129C217.547 35.397 217.307 35.0273 216.993 34.7131C216.678 34.3988 216.318 34.1585 215.893 33.9737C215.468 33.7889 215.024 33.7057 214.553 33.7057C214.1 33.7057 213.684 33.7796 213.314 33.9367C212.945 34.0846 212.63 34.2787 212.362 34.4913C212.113 34.2787 211.799 34.0939 211.429 33.9367C211.068 33.7889 210.652 33.7149 210.2 33.7149Z" fill="#E37EB1"/>
</svg>
