<svg width="174" height="79" viewBox="0 0 174 79" fill="none" xmlns="http://www.w3.org/2000/svg">
<path d="M32.0592 27.0633C32.134 26.9885 32.2088 26.9137 32.2742 26.8295C35.1352 23.5666 37.9681 20.2662 40.8757 17.0407C45.3074 12.1322 49.8792 7.3453 54.5727 2.67993C55.3113 1.95068 56.0686 1.22142 56.8165 0.501516C56.8446 0.473468 56.882 0.445419 56.91 0.417371C57.7234 -0.274487 58.3311 -0.106197 58.621 0.922241C58.9201 2.01612 59.0978 3.12871 59.1352 4.25999C59.238 6.98067 58.9575 9.68266 58.5088 12.3659C58.3405 13.357 58.1161 14.3387 57.8824 15.3204C57.7982 15.6756 57.6299 16.0216 57.4523 16.3488C57.0409 17.1155 56.3303 17.4614 55.5356 17.5923C51.4125 18.3122 47.9065 20.313 44.6529 22.828C41.8294 25.0157 39.1741 27.3905 36.7713 30.0457C35.0978 31.8876 33.471 33.7762 31.8722 35.6834C31.4889 36.1416 31.2552 36.7399 31.0121 37.3009C29.7686 40.1244 28.4597 42.9293 27.3097 45.7995C26.3467 48.2304 25.5801 50.736 24.7199 53.2136C24.6638 53.3632 24.6264 53.5128 24.5423 53.6437C24.3553 53.9616 24.0561 54.0925 23.7289 53.9148C23.3642 53.7092 22.9996 53.4567 22.7378 53.1388C22.0086 52.2506 21.7187 51.1661 21.5878 50.0442C21.3354 47.8097 21.7561 45.6593 22.4293 43.5463C23.5232 40.0777 24.8882 36.7212 26.328 33.3928C26.4495 33.1217 26.4682 32.7851 26.4682 32.4766C26.4495 31.0742 26.4121 29.6718 26.3841 28.2693C26.3561 26.6425 26.3093 25.0251 26.2906 23.3983C26.2813 22.3231 26.3 21.2386 26.3093 20.154C26.3187 19.5557 26.3187 18.948 26.328 18.3496C26.3748 16.1805 26.3935 14.0114 26.4869 11.833C26.5711 9.8416 26.7113 7.85017 26.8796 5.85874C27.0012 4.47503 27.1788 3.10066 27.3845 1.72629C27.5247 0.791349 28.1137 0.557613 28.9365 1.02508C30.4885 1.91328 31.3019 3.32505 31.76 4.98925C32.3023 6.97133 32.3864 8.9908 32.349 11.0196C32.3023 13.6094 32.2088 16.1992 32.1434 18.7797C32.0779 21.4069 32.0125 24.034 31.9564 26.6706C31.9564 26.7921 31.9657 26.923 31.9751 27.0446C32.0031 27.0446 32.0312 27.0539 32.0592 27.0633Z" fill="#F29400"/>
<path d="M94.2891 61.2822C91.5684 61.3757 88.857 61.4692 86.1364 61.5627C84.2852 61.6281 82.434 61.6936 80.5828 61.759C78.7036 61.8245 76.815 61.8899 74.9357 61.9553C73.0191 62.0208 71.1025 62.0862 69.1858 62.161C65.5396 62.3013 61.8839 62.4322 58.2376 62.5631C56.0405 62.6472 53.8341 62.7313 51.6276 62.8155C48.963 62.9183 46.3078 63.0305 43.6432 63.1427C41.6891 63.2269 39.7258 63.311 37.7624 63.4045C35.0136 63.526 32.2649 63.6569 29.5162 63.7972C27.7959 63.872 26.0756 63.9655 24.3553 64.059C21.6813 64.2086 18.9981 64.3581 16.3148 64.5264C14.6038 64.6293 12.8929 64.7321 11.1913 64.8537C8.89131 65.022 6.6007 65.1902 4.30074 65.3772C3.35645 65.452 2.40281 65.5549 1.44916 65.611C1.09388 65.6297 0.729256 65.5829 0.373977 65.5268C0.243085 65.5081 0.121543 65.3772 0 65.3024C0.0841449 65.1809 0.140242 65.0126 0.261784 64.9472C0.878847 64.6199 1.49591 64.274 2.14102 64.0309C4.1418 63.3017 6.21738 62.8996 8.31165 62.5911C10.4059 62.2826 12.5002 62.0208 14.6038 61.7964C16.7916 61.5627 18.9887 61.385 21.1858 61.2074C23.224 61.0484 25.2528 60.9269 27.291 60.796C29.806 60.6371 32.321 60.4781 34.836 60.3285C36.7059 60.2163 38.5758 60.1135 40.4457 60.0107C42.755 59.8891 45.0643 59.7489 47.3736 59.6367C48.9163 59.5525 50.4589 59.4964 52.0109 59.4216C54.582 59.3001 57.1531 59.1692 59.7336 59.0477C61.4165 58.9729 63.1087 58.9074 64.7916 58.8326C67.1009 58.7298 69.4102 58.6176 71.7289 58.5148C72.9443 58.4587 74.1597 58.4213 75.3752 58.3745C78.0771 58.2623 80.7885 58.1595 83.4905 58.0473C84.9957 57.9912 86.4916 57.9444 87.9969 57.8883C90.353 57.8042 92.709 57.7201 95.0651 57.6359C96.9069 57.5705 98.7488 57.505 100.591 57.4396C103.442 57.3461 106.284 57.2619 109.136 57.1684C111.23 57.103 113.325 57.0375 115.409 56.9721C118.018 56.8973 120.626 56.8132 123.235 56.7477C125.208 56.701 127.18 56.6636 129.153 56.6449C130.06 56.6355 130.967 56.6729 131.874 56.729C132.098 56.7477 132.304 56.916 132.519 57.0188C132.351 57.1778 132.201 57.3835 132.005 57.4863C130.668 58.1875 129.209 58.5708 127.732 58.842C125.825 59.1879 123.917 59.5432 121.991 59.7582C119.084 60.0761 116.167 60.3005 113.25 60.5062C110.912 60.6745 108.566 60.7493 106.219 60.8428C103.882 60.9456 101.554 61.0204 99.2162 61.1139C97.5707 61.1606 95.9346 61.2167 94.2891 61.2822Z" fill="#F29400"/>
<path d="M158.389 4.17578C160.24 4.21318 161.68 4.89569 162.792 6.23266C162.933 6.3916 163.054 6.44769 163.269 6.43834C164.971 6.36355 166.364 6.99931 167.448 8.30823C167.523 8.40173 167.682 8.48587 167.794 8.48587C170.468 8.52327 172.563 10.0379 173.329 12.4874C174.087 14.937 173.142 17.6764 171.02 19.1536C169.954 19.8922 168.767 20.2662 167.467 20.2007C167.252 20.1914 167.168 20.2662 167.074 20.4438C166.701 21.1637 166.327 21.9023 165.906 22.6035C165.438 23.3889 164.672 23.7629 163.802 23.9405C162.503 24.2023 161.222 24.034 159.969 23.6787C157.8 23.0429 155.865 22.0052 154.359 20.2849C153.761 19.6024 153.293 18.845 153.228 17.9195C153.2 17.5455 153.247 17.1434 153.368 16.7882C153.621 16.0589 153.929 15.3671 154.238 14.6658C154.331 14.4602 154.331 14.3386 154.163 14.1516C152.602 12.4126 152.171 10.4025 152.919 8.22409C153.667 6.00827 155.266 4.68065 157.575 4.24123C157.875 4.20383 158.183 4.19448 158.389 4.17578ZM172.17 14.2545C172.179 11.5525 169.926 9.5891 167.252 9.99113C166.916 10.0472 166.757 9.96308 166.607 9.65455C165.915 8.28953 164.279 7.56028 162.792 7.9623C162.428 8.06515 162.26 7.9997 162.054 7.66312C160.895 5.73714 158.623 5.06398 156.622 6.00827C153.518 7.47613 153.078 11.6553 155.799 13.7309C156.061 13.9272 156.08 14.0675 155.949 14.3386C155.528 15.2549 155.154 16.1898 154.752 17.1154C154.584 17.4894 154.593 17.854 154.733 18.228C154.948 18.817 155.313 19.3032 155.762 19.7426C157.36 21.2853 159.286 22.2015 161.474 22.5755C162.269 22.7157 163.073 22.7344 163.849 22.4726C164.223 22.3511 164.606 22.2108 164.69 21.7434C164.7 21.706 164.737 21.6779 164.765 21.6405C164.943 21.3974 165.158 21.1731 165.289 20.9113C165.597 20.2849 165.896 19.6491 166.168 19.004C166.289 18.7142 166.42 18.6207 166.747 18.6955C169.281 19.3125 172.133 17.3304 172.17 14.2545Z" fill="#F29400"/>
<path d="M157.211 19.4435C156.958 18.6301 158.426 15.4045 159.211 15.0399C159.211 15.2082 159.24 15.3484 159.202 15.4887C158.875 16.807 158.323 18.0224 157.538 19.1256C157.463 19.2378 157.342 19.3126 157.211 19.4435Z" fill="#F29400"/>
<path d="M161.717 21.4721C161.455 20.6493 162.97 17.3583 163.727 17.0685C163.709 17.2835 163.727 17.4799 163.681 17.6575C163.353 18.8729 162.839 20.0042 162.129 21.042C162.026 21.1822 161.876 21.3038 161.717 21.4721Z" fill="#F29400"/>
<path d="M148.936 52.129C148.843 52.1851 148.74 52.2412 148.544 52.344C148.6 52.1477 148.619 52.0448 148.656 51.9513C148.852 51.4558 149.049 50.951 149.236 50.4554C151.377 44.9673 153.77 39.5914 156.21 34.2342C156.893 32.7289 157.51 31.2143 157.594 29.5408C157.65 28.2318 157.491 26.979 156.799 25.8384C156.229 24.8847 155.509 24.8567 154.883 25.7729C154.499 26.3339 154.144 26.9229 153.845 27.5213C152.33 30.5411 150.825 33.561 149.348 36.5996C147.917 39.5353 146.487 42.471 144.757 45.2572C143.804 46.7905 142.794 48.277 141.541 49.5859C140.802 50.3526 140.008 51.0725 138.961 51.3997C137.689 51.8111 136.932 51.353 136.698 50.0441C136.679 49.9319 136.679 49.829 136.67 49.7168C136.586 48.4921 136.857 47.314 137.231 46.164C138.119 43.4621 139.307 40.8816 140.615 38.3666C141.457 36.7492 142.354 35.1691 143.149 33.533C143.841 32.1025 144.29 30.5879 144.178 28.9704C144.093 27.8111 143.663 26.8014 142.878 25.9506C142.401 25.427 141.803 25.4644 141.354 26.016C141.261 26.1282 141.167 26.2591 141.092 26.39C139.811 28.5871 138.456 30.7468 137.268 32.9907C135.501 36.3284 133.987 39.7784 132.883 43.3966C132.341 45.1824 131.967 46.9774 132.079 48.8567C132.089 49.025 132.023 49.2307 131.92 49.3616C131.444 49.9038 130.958 50.4461 130.434 50.9416C129.929 51.4184 129.349 51.7831 128.667 51.9981C127.367 52.4095 126.199 51.8859 125.647 50.6424C125.292 49.829 125.217 48.9782 125.31 48.0994C125.46 46.6689 125.946 45.3413 126.619 44.0885C127.872 41.7418 129.19 39.4231 130.434 37.067C131.397 35.2626 132.276 33.4301 132.425 31.3358C132.5 30.2607 132.453 29.2042 132.117 28.1851C131.528 26.4461 130.359 25.8664 128.62 26.4274C127.236 26.8762 126.03 27.6709 124.862 28.503C123.244 29.6623 121.758 30.9806 120.355 32.3923C120.28 32.4671 120.187 32.5326 120.075 32.6261C120.075 31.8127 120.122 31.0647 120.065 30.3168C119.981 29.2509 119.626 28.2599 119 27.3904C118.233 26.3245 117.195 25.9599 115.942 26.3152C114.811 26.6424 113.82 27.2595 112.866 27.9326C110.679 29.4753 108.753 31.3078 107.014 33.346C106.948 33.4301 106.929 33.5517 106.892 33.6545C106.845 33.6078 106.789 33.5704 106.733 33.5236C106.742 33.4582 106.752 33.3834 106.771 33.3179C107.051 32.2334 107.229 31.1302 107.201 29.9989C107.173 28.746 106.911 27.5587 106.181 26.5209C105.733 25.8758 105.162 25.8851 104.751 26.5489C104.368 27.1753 103.994 27.8018 103.629 28.4469C100.553 33.8882 97.8418 39.4979 95.6166 45.3413C95.1024 46.6876 94.6817 48.0713 94.4947 49.5205C94.4573 49.829 94.476 50.2124 94.3077 50.4367C93.5691 51.3997 92.7183 52.2599 91.587 52.7741C89.9789 53.494 88.5204 52.8208 88.0155 51.1379C87.6509 49.9225 87.8285 48.7258 88.1371 47.5384C88.4643 46.2575 89.072 45.0982 89.6891 43.9576C90.8484 41.8072 92.0545 39.6755 93.2045 37.5158C94.1114 35.8142 94.8593 34.0565 94.9715 32.0838C95.037 30.9245 94.9528 29.7838 94.476 28.6993C93.915 27.4278 92.924 26.8762 91.5777 27.2408C90.7736 27.4652 89.9883 27.8111 89.259 28.2225C86.8843 29.5688 84.8461 31.3545 82.9201 33.2712C82.8266 33.3647 82.7238 33.4395 82.5835 33.5517C82.5742 33.4395 82.5648 33.3927 82.5648 33.3553C82.7051 32.5139 82.6864 31.6724 82.5368 30.8403C82.3404 29.7184 81.9571 28.6806 81.1157 27.8579C80.4144 27.166 79.573 26.9416 78.61 27.194C77.5348 27.4745 76.5905 28.0355 75.6836 28.6526C73.3556 30.242 71.3361 32.1679 69.5037 34.2996C69.4476 34.3651 69.3821 34.4212 69.326 34.4866C69.2793 34.3744 69.2886 34.2996 69.298 34.2342C69.4382 33.3366 69.6439 32.4484 69.7093 31.5415C69.8122 30.1859 69.5971 28.8676 68.8679 27.6802C68.2789 26.7172 67.7273 26.7172 67.1476 27.6802C63.707 33.4769 60.7432 39.5166 58.3217 45.8181C57.5925 47.7254 56.9474 49.6607 56.9006 51.727C56.9006 51.8298 56.8632 51.9607 56.7884 52.0261C55.9657 52.8395 55.1055 53.6155 53.9649 53.9428C52.3287 54.4103 51.2162 53.5781 51.1414 51.8672C51.0946 50.8107 51.2723 49.7916 51.5808 48.7912C52.1324 46.9774 52.9739 45.2946 53.834 43.6117C55.1336 41.0686 56.4612 38.5443 57.7421 36.0012C58.5461 34.4118 58.9481 32.7102 58.8453 30.9151C58.7799 29.8306 58.5368 28.7928 57.9104 27.8766C57.2465 26.9323 56.6762 26.9136 56.0405 27.8859C55.4702 28.7647 54.9092 29.6623 54.4324 30.6066C53.1234 33.187 51.88 35.7955 50.5804 38.3853C48.8601 41.8072 47.037 45.173 44.8866 48.3425C43.9329 49.7542 42.9045 51.1099 41.6797 52.2973C40.885 53.0733 40.0249 53.7838 38.8749 53.9802C38.1643 54.1017 37.6221 53.8306 37.3135 53.1761C37.0705 52.6619 37.0237 52.129 37.0424 51.568C37.0798 50.3058 37.4257 49.0998 37.8652 47.9311C39.1741 44.4157 40.7915 41.0499 42.6521 37.7963C43.559 36.2069 44.3163 34.552 44.5407 32.7102C44.7276 31.2143 44.5313 29.7838 43.6618 28.4936C43.0447 27.5867 42.1846 27.5867 41.5862 28.503C39.894 31.1021 38.3607 33.776 36.977 36.5528C35.3969 39.7129 33.9664 42.9385 33.0035 46.351C32.4799 48.1929 32.1994 50.0721 32.4986 51.9981C32.6669 53.0639 32.9848 54.0737 33.7327 54.8871C34.9762 56.224 36.5749 56.4952 38.2952 56.2614C39.9033 56.0464 41.2777 55.2704 42.5305 54.2794C43.989 53.1294 45.2138 51.755 46.289 50.2498C46.3731 50.1376 46.4666 50.0441 46.6069 49.8851C46.6443 50.5022 46.663 51.0258 46.7097 51.5493C46.9248 53.7371 48.2524 55.3826 50.3093 55.9903C51.6275 56.3736 52.9739 56.3923 54.3108 56.1025C55.4047 55.8688 56.4144 55.42 57.3587 54.831C57.5551 54.7094 57.6673 54.7094 57.8169 54.9058C58.0412 55.1863 58.2937 55.448 58.5742 55.6724C59.0697 56.0744 59.5278 55.9529 59.7896 55.3732C59.8457 55.2517 59.9018 55.1302 59.9485 55.0086C60.388 53.868 60.8274 52.718 61.2949 51.5774C61.5005 51.0725 61.7997 50.605 62.0335 50.1189C62.4074 49.3616 62.7908 48.6136 63.1273 47.8469C63.305 47.4449 63.3237 46.9868 63.5013 46.5941C64.5204 44.4625 65.6517 42.3962 66.9887 40.4515C69.0455 37.441 71.4577 34.739 74.3467 32.4858C75.0946 31.8968 75.8893 31.3545 76.8149 31.0741C77.0113 31.0086 77.3198 31.0086 77.4507 31.1302C77.5629 31.2236 77.5535 31.5509 77.4787 31.7379C77.1982 32.4671 76.9178 33.2151 76.5438 33.8976C75.2068 36.3658 73.8231 38.8154 72.4768 41.2743C71.3361 43.3592 70.2516 45.4628 69.5785 47.7441C69.0642 49.4737 68.6903 51.2314 69.0175 53.0452C69.2138 54.1298 69.6345 55.1021 70.4947 55.8407C71.0931 56.3456 71.5886 56.2521 71.9532 55.5602C72.0187 55.4387 72.0747 55.2984 72.1308 55.1676C72.3272 54.6907 72.5235 54.2139 72.7105 53.7371C74.2158 49.9599 75.908 46.2856 78.0584 42.8263C80.2368 39.3296 82.8079 36.1695 85.8932 33.4301C86.8375 32.5887 87.8192 31.8033 88.9692 31.2423C89.2777 31.0928 89.6236 30.9993 89.9696 30.9151C90.222 30.859 90.3622 30.9899 90.2874 31.2517C90.2313 31.4948 90.1659 31.7472 90.0444 31.9623C89.1562 33.5984 88.2586 35.2346 87.3424 36.852C85.9026 39.4044 84.4254 41.9288 83.3221 44.6494C82.6303 46.3323 82.2189 48.0713 82.4433 49.9038C82.6396 51.568 83.3408 52.9704 84.7152 53.9708C86.4448 55.2237 88.3989 55.4574 90.4557 55.1769C91.961 54.9712 93.3073 54.3355 94.5508 53.4847C94.7845 53.3257 94.878 53.3631 95.0276 53.5969C95.28 53.9615 95.5699 54.3168 95.8971 54.6159C96.5329 55.205 97.0378 55.0554 97.3463 54.242C97.6922 53.3164 98.0381 52.4001 98.4028 51.4839C99.693 48.1929 101.18 44.9954 102.937 41.9194C104.835 38.6004 107.219 35.6553 110.015 33.0561C111.053 32.0931 112.137 31.1769 113.399 30.5131C113.745 30.3261 114.138 30.1765 114.531 30.083C114.914 29.9895 115.092 30.1952 115.017 30.5785C114.979 30.7936 114.914 31.018 114.83 31.205C114.4 32.1118 113.988 33.0374 113.511 33.9256C111.959 36.7866 110.351 39.6194 108.827 42.4991C107.64 44.7523 106.724 47.1083 106.453 49.6701C106.331 50.8762 106.359 52.0822 106.808 53.2416C107.07 53.9054 107.462 54.485 108.014 54.9338C108.556 55.3732 109.014 55.2984 109.379 54.7001C109.472 54.5505 109.529 54.3822 109.603 54.2233C110.716 51.6615 111.754 49.0624 112.969 46.5474C115.335 41.667 118.373 37.2447 122.3 33.4675C123.487 32.3269 124.712 31.233 126.18 30.4383C126.545 30.242 126.965 30.1017 127.367 29.9895C127.713 29.896 127.844 30.055 127.732 30.4009C127.629 30.7375 127.517 31.0741 127.349 31.3826C126.339 33.2057 125.32 35.0195 124.291 36.8333C123.048 39.0117 121.814 41.1995 120.86 43.5275C120.215 45.1076 119.776 46.7157 119.878 48.4453C120.019 50.8014 121.019 52.6152 123.197 53.6529C124.703 54.3635 126.32 54.5037 127.956 54.2513C129.705 53.9802 131.219 53.1948 132.612 52.1383C132.874 51.9326 133.005 51.9513 133.201 52.2225C133.678 52.8676 134.314 53.307 135.062 53.5688C136.679 54.1298 138.259 53.9989 139.802 53.3164C141.251 52.6806 142.448 51.6896 143.551 50.577C143.626 50.5022 143.71 50.4274 143.794 50.3526C143.813 50.3619 143.832 50.3806 143.85 50.39C143.832 50.4648 143.822 50.5302 143.794 50.5957C143.299 51.9326 142.813 53.2696 142.298 54.5972C142.233 54.7655 142.065 54.9432 141.896 55.018C139.793 55.9529 137.745 57.0187 135.847 58.337C133.248 60.1321 130.995 62.2731 129.434 65.0686C128.489 66.7609 127.825 68.556 127.676 70.5006C127.442 73.4925 128.77 75.8672 130.789 77.9241C131.397 78.5411 132.21 78.7655 133.099 78.5972C134.127 78.4009 134.996 77.8773 135.801 77.2416C137.455 75.9327 138.68 74.2685 139.783 72.5014C141.607 69.5657 143.046 66.443 144.327 63.2455C145.3 60.8053 146.216 58.337 147.141 55.8781C147.282 55.5135 147.459 55.2704 147.824 55.1115C148.936 54.6066 150.049 54.083 151.143 53.5127C153.405 52.344 155.575 51.0445 157.426 49.2774C157.482 49.2307 157.631 49.0811 157.631 49.0811C160.1 46.6783 160.072 41.4145 160.072 41.4145C157.201 45.8181 153.462 49.3803 148.936 52.129ZM140.999 58.4773C139.531 62.3666 137.801 66.1344 135.67 69.7246C134.828 71.127 133.949 72.5108 132.837 73.7168C132.538 74.0347 132.192 74.3152 131.836 74.5583C131.537 74.764 131.331 74.6798 131.182 74.3432C130.911 73.7542 130.92 73.1278 131.004 72.5014C131.285 70.2201 132.164 68.1446 133.304 66.1812C135.174 62.9556 137.661 60.3097 140.765 58.2529C140.84 58.2061 140.915 58.1594 140.989 58.1126C141.008 58.1033 141.027 58.1126 141.12 58.1126C141.064 58.2622 141.036 58.3744 140.999 58.4773Z" fill="#F29400"/>
</svg>
